<?xml version="1.0" encoding="UTF-8"?>
<svg
  xmlns="http://www.w3.org/2000/svg"
  width="32"
  height="32"
  viewBox="0 0 1.81 1.81"
  version="1.1"
  style="shape-rendering:geometricPrecision;text-rendering:geometricPrecision;image-rendering:optimizeQuality;fill-rule:evenodd;clip-rule:evenodd"
>
  <defs>
    <style type="text/css"><![CDATA[
      .fil0 {fill:#D02B07}
      .fil1 {fill:#B63014;fill-rule:nonzero}
      .fil8 {fill:#D02B07;fill-rule:nonzero}
      .fil4 {fill:#E69021;fill-rule:nonzero}
      .fil5 {fill:#EA9A1C;fill-rule:nonzero}
      .fil3 {fill:#F5AE36;fill-rule:nonzero}
      .fil11 {fill:#F7D4CD;fill-rule:nonzero}
      .fil7 {fill:#FDBE4A;fill-rule:nonzero}
      .fil6 {fill:#FECD76;fill-rule:nonzero}
      .fil10 {fill:#FEF9E7;fill-rule:nonzero}
      .fil2 {fill:#FFEFD6;fill-rule:nonzero}
      .fil9 {fill:white;fill-rule:nonzero}
    ]]></style>
  </defs>

 <g id="图层_x0020_1">
  <metadata id="CorelCorpID_0Corel-Layer"/>
  <circle class="fil0" cx="0.91" cy="0.91" r="0.91"/>
  <path class="fil1" d="M0.91 0.4l-0.01 0.01c-0.01,-0.01 -0.01,-0.01 -0.02,-0 -0,0 -0,0 -0,0 0,0 0,0 0,0 0.01,0 0.01,0.01 0.02,0.01 0.01,0.01 0.03,0.03 0.04,0.04 -0,0 -0,0 -0,0 -0.01,-0 -0.02,-0.01 -0.03,-0.02 -0,-0 -0.01,-0.01 -0.02,-0.02 -0,-0 -0.01,-0.01 -0.02,-0.01 -0,-0 -0,-0 -0,-0 -0.01,-0 -0.01,-0 -0.02,0 -0.01,0 -0.02,0.01 -0.03,0.01 -0.01,0 -0.03,0 -0.04,-0 -0,-0 -0,-0 -0,-0l-0 -0c-0,-0 -0,-0 -0,-0 -0,0 -0,0 -0,0l0 0c-0,0 -0,0 -0,0 0,0 0,0 0,0 0.01,0.01 0.02,0.03 0.03,0.04 0,0.01 0.01,0.01 0.01,0.01 0.02,0.01 0.04,0 0.06,0 0.01,-0 0.02,-0 0.03,-0 0,0 0.01,0 0.01,0l0 0.01c-0.01,-0 -0.01,-0 -0.01,-0 -0,0 -0,0 -0,0 -0,0 -0,0 -0,0 0,0 0,0 0,0 0,0 0,0 0.01,0.01 0.01,0.01 0.02,0.03 0.03,0.04l-0 0.01c-0,-0 -0,-0 -0.01,-0 -0.01,-0.01 -0.01,-0.01 -0.02,-0.02 -0,-0.01 -0.01,-0.01 -0.01,-0.02 -0,-0 -0.01,-0 -0.01,-0 -0.01,0 -0.03,0.01 -0.05,0.01 -0.01,-0 -0.02,-0 -0.03,-0.01 -0,-0 -0,-0 -0,-0 -0,0 -0,0 -0,0 0,0 0,0 0,0 0.01,0.01 0.01,0.03 0.02,0.04 0,0 0,0.01 0.01,0.01 0.01,0.01 0.03,0.01 0.04,0.02 0.02,0 0.04,0 0.06,-0 0,0 0,0 0.01,0.01l-0.01 0c-0,0 -0,0 -0,0 -0,0 -0,0 -0,0 0,0 0,0 0,0 0.01,0.01 0.01,0.02 0.02,0.03 0.01,0.01 0.02,0.02 0.03,0.03 0,0 0,0.01 -0,0.01 -0.01,-0 -0.02,0 -0.02,0 -0,0 -0.01,0 -0.01,0 -0.01,0 -0.02,0 -0.03,0 -0.02,0 -0.05,-0.01 -0.07,-0.02 -0,-0 -0.01,-0.01 -0.01,-0.01 -0,0 -0,-0 -0,0 0,0.01 0.01,0.02 0.01,0.03 0,0 0,0.01 0,0.01 0,0 0,0 0,0 0.02,0.01 0.03,0.02 0.05,0.02 0,0 0.01,0 0.02,0 0.01,0 0.01,0 0.02,0 0.02,0 0.04,0.01 0.05,0.03 0,0 0,0.01 -0,0.01 -0.01,-0.01 -0.02,-0.03 -0.04,-0.03 -0,-0 -0.01,-0 -0.02,-0 -0,-0 -0.01,-0 -0.02,-0 -0.02,-0 -0.03,-0.01 -0.05,-0.02 -0,-0 -0.01,-0.01 -0.02,-0.01 0,0 -0,0 -0,0 -0,0 -0,0 -0,0 0,0 0,0 0,0 0,0.01 0.01,0.02 0.01,0.02 0.03,0.03 0.07,0.05 0.11,0.05 0,0 0,0.01 0,0.01 -0.03,-0 -0.05,-0.01 -0.08,-0.02 -0.03,-0.01 -0.05,-0.04 -0.06,-0.06 -0.01,-0.01 -0.01,-0.03 -0.01,-0.04 -0.01,-0.04 -0.02,-0.07 -0.03,-0.1 -0,-0.01 -0.01,-0.02 -0.01,-0.03 -0.01,-0.01 -0.01,-0.02 -0.02,-0.03 -0.02,-0.02 -0.04,-0.04 -0.06,-0.05 -0.01,-0.01 -0.02,-0.01 -0.03,-0.01 -0,-0 -0,-0 -0.01,0 -0,0 -0,0 -0,0 -0,0 -0,-0 -0,-0 0,-0 0,-0 0,-0 0,-0 0,-0 0,-0.01 0.01,-0.02 0,-0.04 -0.01,-0.06 -0,-0 -0,-0 -0,-0 -0.02,0.01 -0.03,0.03 -0.03,0.05 -0,0 -0,0.01 0,0.01 0,0 0,0 0,0 0,0 -0,0 -0,0 0,0 0,-0 0,-0 -0.01,-0 -0.01,0 -0.02,0 -0.02,0.01 -0.04,0.02 -0.06,0.04 -0,0.01 -0.01,0.01 -0.01,0.02 -0,0.01 -0,0.02 -0,0.02 -0,0.01 -0.01,0.02 -0.02,0.03 -0.01,0.01 -0.03,0.03 -0.04,0.04 -0.01,0 -0.01,0.01 -0.01,0.01 0,0.02 0,0.03 0,0.04l-0.01 0c-0,-0.01 -0.01,-0.03 -0,-0.04 0,-0 0,-0.01 0,-0.01 0,-0 0,-0.01 0.01,-0.01 0.01,-0.01 0.02,-0.02 0.02,-0.02 0.01,-0.01 0.02,-0.02 0.03,-0.03 0.01,-0.01 0.01,-0.01 0.02,-0.02 0,-0 0,-0.01 0,-0.01 0,-0.01 0,-0.02 0.01,-0.03 0.01,-0.01 0.02,-0.02 0.03,-0.03 0,-0 0.01,-0.01 0.02,-0.01 0,-0 0,-0 0,-0 0,-0 -0,-0 -0,-0 -0,-0 -0.01,-0.01 -0.01,-0.01 -0,-0.02 -0,-0.03 0,-0.05 0,-0 0,-0 0,-0.01 0,-0 0,-0 0,-0 0,-0 0,0 0,0 0.01,0.01 0.03,0.03 0.03,0.04 0,0 0,0 0,0 0,0 0,0 0,0 0,0 0,-0 0,-0 0,-0.01 0,-0.01 0.01,-0.01 0,-0 0.01,-0.01 0.01,-0.02 0.01,-0.01 0.01,-0.01 0.02,-0.02 0,-0 0,-0 0,-0 0,0 0,0 0,0 0.01,0.01 0.01,0.02 0.02,0.03 0,0 -0,0.01 0,0.01 0,0 0,0 0,0 0,0 0,0 0,-0 0.02,-0.02 0.05,-0.02 0.07,-0.01 0.01,0 0.02,0 0.03,0.01 0.01,0 0.01,0 0.02,0 0,0 0,-0 0,-0 0,-0 0.01,-0 0.01,-0 0,-0 0,-0 0,-0 0,0 0,0 0,0 0,0 0,0 0,0 0,0 0,0 0,0 -0.01,0.01 -0.02,0.02 -0.04,0.02 -0,0 -0,0 -0,0 0,0 0,0 0,0l0.02 0c0,0 0,0 0,0 0.02,0.01 0.04,0.02 0.06,0.04 0,0 0,0 0,0 0.01,0 0.01,-0 0.02,-0zm-0.32 -0.09c-0,0.02 -0,0.04 0,0.05 0,0 0,0 0,0 0.01,-0 0.02,-0.01 0.03,-0.01 0,-0 0,-0 0,-0 0,-0 0,-0 0,-0 -0,-0 -0,-0.01 -0,-0.01 -0.01,-0.01 -0.01,-0.01 -0.01,-0.01 -0.01,-0.01 -0.02,-0.02 -0.02,-0.03 -0,-0 -0,-0 -0,-0 -0,-0 -0,-0 -0,0 0,0 -0,0 -0,0l0 0zm0.23 0.03c-0.01,0 -0.02,0 -0.02,-0 -0.02,-0 -0.04,-0.01 -0.06,-0.01 -0.01,0 -0.03,0 -0.04,0.01 -0,0 -0,0 -0.01,0 -0,0 -0,0 -0,0l-0 0.01c0,0 0,0 0,0 -0,0 0,0 0,0 0,0 0,0 0,0 0.03,0.01 0.06,0.03 0.08,0.05 0,0 0,0 0.01,0 0.02,0 0.03,0 0.04,-0 0.01,-0 0.03,-0.01 0.04,-0.01 0,-0 0.01,-0 0.02,0 0,0 0,-0 0,-0 0,0 0,0 0,0 0,-0 0,-0 0,-0 0,-0 -0,-0 -0,-0 -0.01,-0.01 -0.02,-0.02 -0.03,-0.02 -0.01,-0.01 -0.02,-0.01 -0.04,-0.01 -0.01,-0 -0.01,-0 -0.02,-0 -0.01,0 -0.03,0.01 -0.05,0.01 -0,0 -0,0 -0,0 -0,0 -0,0 -0.01,-0 -0,0 -0,-0 -0,-0 -0,-0 -0,-0 -0,-0 0,-0 0,-0 0,-0 0,-0 0,-0 0.01,-0 0.01,-0 0.01,-0.01 0.02,-0.01 0.01,-0 0.03,-0.01 0.04,-0.01 0.01,-0 0.01,-0 0.02,-0.01 0,-0 0,-0 0,-0 0,-0 -0,-0 -0,-0 0,0 -0,0 -0,0zm0.01 0.19c0,0 -0,0 -0,0 -0,0 -0,0 -0,0 0,0 0,0 0,0 0,0.01 0.01,0.03 0.01,0.04 0,0 0,0.01 0,0.01 0.02,0.01 0.04,0.02 0.06,0.02 0.01,0 0.02,0 0.03,0 0.02,0 0.03,0 0.04,0 0,0 0,0 0,0 0,-0 0,-0 0,-0 -0,-0 -0,-0 -0,-0 -0.03,-0.01 -0.04,-0.03 -0.05,-0.05 -0,-0 -0,-0 -0,-0 -0,0 -0,0 -0,0 -0.02,0 -0.04,0 -0.06,-0 -0.01,-0 -0.02,-0.01 -0.03,-0.02z"/>
  <path class="fil2" d="M0.99 0.72c0.04,0 0.07,0 0.11,0 0.01,-0 0.03,0 0.04,0 0.02,0 0.04,0.01 0.06,0.02 0.02,0.01 0.04,0.03 0.06,0.04 0.02,0.02 0.03,0.04 0.03,0.06 0.01,0.04 -0,0.07 -0.02,0.1 -0,0 -0.01,0.02 -0.01,0.03 -0.01,0.01 -0.01,0.03 -0.01,0.05 0,0.01 0.02,0.03 0.03,0.04 0.01,0.01 0,0.02 0,0.03 -0,0.01 -0.01,0.02 -0.01,0.02 -0.01,0.01 -0.01,0.01 -0.01,0.02 -0.01,0.02 -0.02,0.03 -0.03,0.04 -0.01,0.01 -0.02,0 -0.03,-0 0.01,-0.02 0.01,-0.05 0.01,-0.07 0,-0.01 -0,-0.01 -0,-0.01 -0,-0 -0.01,-0.01 -0.02,-0.01 -0.01,-0.01 -0.02,-0.01 -0.03,-0.02 -0.01,-0.01 -0.02,-0.01 -0.02,-0.01 -0.02,-0.01 -0.03,-0.02 -0.04,-0.04 -0.02,-0.02 -0.02,-0.04 -0.03,-0.07 -0,-0.02 -0,-0.04 -0,-0.06 -0,-0.01 -0,-0.02 -0.01,-0.02 -0,-0 -0,-0 -0,-0 -0,-0 -0,0 -0,0 -0,0 -0,0 0,0 0,0 0,0.01 0,0.02 -0,0.01 -0,0.04 -0,0.05 -0,0.01 0,0.02 0,0.03 0,0 -0,0 -0,0 -0.02,0.01 -0.04,0.01 -0.07,0.02 -0.05,0.01 -0.11,0.01 -0.16,-0.01 -0.02,-0.01 -0.04,-0.01 -0.05,-0.02 -0,-0 -0,-0 -0,-0 0,-0 0,-0 0,-0 0.02,-0.01 0.03,-0.02 0.04,-0.03 0,-0.01 0.01,-0.02 0.01,-0.03 0,0 0,0 0,-0 0,-0 -0,-0 -0,-0 -0,0 -0,0 -0,0 -0.01,0.02 -0.02,0.04 -0.04,0.05 -0.01,0.01 -0.03,0.01 -0.04,0 -0.02,-0 -0.04,-0.01 -0.06,-0.02 -0.02,-0.01 -0.04,-0.02 -0.06,-0.03 -0,-0 -0,-0 -0,-0 -0,-0 -0,-0 -0,-0 -0,0 -0,0 -0,0 -0,0 -0,0 0,0.01 0.01,0.02 0.01,0.04 0.02,0.07 0,0.01 0,0.01 0.01,0.01 0,0 0.01,0 0.01,0.01 0,0 0,0 0,0 0,0.01 -0,0.01 -0,0.02 -0,0.01 -0.01,0.02 -0.02,0.03 -0,0 -0,0 -0,0 -0.01,-0.01 -0.02,-0.01 -0.03,-0.02 -0.01,-0.01 -0.01,-0.01 -0.02,-0.03 -0.01,-0.03 -0.02,-0.06 -0.03,-0.09 -0,-0.01 -0,-0.01 -0,-0.02 -0,-0.01 -0,-0.01 -0,-0.01 0,-0.01 0.01,-0.02 0.01,-0.03 0.01,-0.01 0.01,-0.01 0.02,-0.02 0,-0 0.01,-0 0.01,-0 0.03,0 0.06,0 0.09,0 0,0 0.01,0 0.02,0 0,0 0.01,0 0.01,0 0,0 0,0 0,0 0,0 0,-0 0,-0 0,-0 0,-0 -0,-0 -0.01,-0.01 -0.02,-0.01 -0.03,-0.01 -0.02,-0 -0.03,-0 -0.05,-0 -0,0 -0,-0 -0,-0 -0,-0.01 -0.01,-0.02 -0.01,-0.03 -0,-0.01 -0,-0.03 0,-0.04 0,-0.02 0.01,-0.03 0.01,-0.05 0.01,-0.04 0.02,-0.08 0.02,-0.12 -0,-0.01 -0,-0.02 -0,-0.02 -0,-0 0,-0 0,-0 0.03,-0.01 0.05,-0.04 0.05,-0.07 0,-0 -0,-0 -0,-0 -0,0 -0,0 -0,0 -0,0.01 -0.01,0.03 -0.02,0.04 -0.01,0.02 -0.04,0.02 -0.06,0.03 -0.02,0 -0.04,0 -0.05,0.01 -0.01,0 -0.01,0.01 -0.01,0.01 -0.01,0.01 -0.01,0.02 -0.03,0.03 -0.01,0 -0.02,0 -0.03,0 -0,-0 -0,-0 -0,-0 0,-0 0,-0 0,-0 0,-0 0,-0 0,-0 0.01,-0 0.01,-0 0.01,-0 0.01,-0 0.02,-0.01 0.03,-0.03 0,-0 0,-0 0,-0 -0,-0 -0,-0 -0,-0 -0,0 -0,0 -0,0 -0,0 -0.01,0.01 -0.01,0.01 -0.01,0.01 -0.02,0.02 -0.04,0.02 -0,0 -0.01,0 -0.01,-0 -0.01,-0 -0.01,-0.01 -0.01,-0.01 -0,-0.01 -0,-0.03 -0,-0.04 0,-0.01 0,-0.01 0.01,-0.01 0.02,-0.01 0.03,-0.03 0.04,-0.04 0.01,-0.01 0.02,-0.02 0.02,-0.03 0,-0.01 0,-0.02 0,-0.02 0,-0.01 0.01,-0.01 0.01,-0.02 0.02,-0.02 0.04,-0.03 0.06,-0.04 0.01,-0 0.01,-0 0.02,-0 0,0 0,0 0,0 0,0 0,-0 0,-0 0,-0 0,-0 -0,-0 -0,-0 -0,-0.01 -0,-0.01 0,-0.02 0.02,-0.04 0.03,-0.05 0,-0 0,-0 0,0 0.01,0.02 0.02,0.04 0.01,0.06 -0,0 -0,0.01 -0,0.01 -0,0 -0,0 -0,0 0,0 0,0 0,0 0,0 0,0 0,0 0,-0 0,-0 0.01,-0 0.01,0 0.02,0.01 0.03,0.01 0.02,0.01 0.04,0.03 0.06,0.05 0.01,0.01 0.01,0.02 0.02,0.03 0.01,0.01 0.01,0.02 0.01,0.03 0.01,0.03 0.02,0.06 0.03,0.1 0,0.01 0.01,0.03 0.01,0.04 0.01,0.03 0.04,0.05 0.06,0.06 0.02,0.01 0.05,0.02 0.08,0.02zm-0.33 -0.36l0.01 0c0,0 0,-0 0,-0 0,-0 0,-0.01 0,-0.01 0,-0.01 0,-0.02 0,-0.03 -0,-0 -0,-0 -0,-0 -0,0 -0,0 -0,0 -0,0 -0,0 -0,0 -0.01,0.01 -0.02,0.03 -0.01,0.04 0,0 0,0 0,0l0 0zm0.01 0.04c-0,0 -0,0 -0.01,0 -0.01,0.01 -0.02,0.01 -0.03,0.01 -0.01,0 -0.02,0 -0.02,0.01 -0,0 -0.01,0.01 -0.01,0.01 -0,0 -0,0 -0,0 -0,-0 -0.01,-0.01 -0.01,-0.01 -0,-0 -0,-0 -0,-0 -0,0 -0,0 -0,0 0,0 0,0 0,0 0,0.01 0.01,0.01 0.01,0.02 0,0 0,0 0,0 0,0 0,0 0,0 0,0 -0,0 -0,0 -0,0 -0,0.01 -0,0.01 -0,0.01 -0.01,0.01 -0.02,0.02 -0,0 -0,0 -0,0 0,0 0,0 0,0 0,0 0,0 0,0 0.01,-0 0.01,-0.01 0.02,-0.01 0,-0 0,-0 0.01,-0 0.01,0 0.02,0 0.02,-0 0.02,-0 0.02,-0.01 0.02,-0.03 0,-0 0,-0 0,-0 0.01,-0 0.01,-0.01 0.02,-0.01 0,-0 0,-0 0,-0 0,-0 -0,-0 -0,-0 -0,0 -0,0 -0,0l0 0zm-0.17 0.14c0,-0 0,-0 0,-0 0,-0 0.01,-0.01 0.01,-0.02 0,-0 0,-0 0,-0.01 -0,-0 -0,-0 -0,-0 -0,0 -0,0 -0,0 -0,0 -0,0 -0,0 -0.01,0.01 -0.01,0.01 -0.01,0.02 0,0 0,0 0,0 0,0 0,0 0,-0l-0 0zm0.15 0.25c0,-0 0,-0 0,-0 0,-0.01 0,-0.02 0,-0.02 0,-0.02 0.01,-0.03 0.01,-0.05 0,-0 0,-0 0,-0 -0,-0 -0,-0 -0,-0 -0,0 -0,0 -0,0 -0,0 -0,0.01 -0.01,0.01 -0.01,0.02 -0.01,0.04 -0.01,0.06 0,0 0,0.01 0,0.01 0,0 0,0 0,0 0,0 0,-0 0,-0l0 0z"/>
  <path class="fil2" d="M0.59 0.32c0,-0 0,-0 0,-0 0,-0 0,-0 0,-0 0,0 0,0 0,0 0.01,0.01 0.01,0.02 0.02,0.03 0,0 0,0 0.01,0.01 0,0 0,0 0,0.01 0,0 0,0 0,0 0,0 -0,0 -0,0 -0.01,0 -0.02,0 -0.03,0.01 -0,0 -0,0 -0,-0 -0.01,-0.02 -0.01,-0.04 -0,-0.05z"/>
  <path class="fil1" d="M0.65 0.37c-0,0 -0,-0 -0,-0 -0,-0.02 0,-0.03 0.01,-0.04 0,-0 0,-0 0,-0 0,-0 0,-0 0,-0 0,0 0,0 0,0 0,0.01 0,0.02 -0,0.03 -0,0 -0,0.01 -0,0.01 -0,0 -0,0 -0,0l-0.01 0z"/>
  <path class="fil3" d="M1.26 0.32c-0,0 -0,0.01 -0,0.01 0,0 0,0 0,0 0,0 0,0 0,0 0.02,0.01 0.04,0.02 0.05,0.04 0.01,0.01 0.01,0.02 0.01,0.03 0,0.01 0,0.02 -0,0.04 -0,0.01 -0,0.01 -0.01,0.02 0,0 0,0 0,0 -0,0 0,0 0,0 0,0 0,0 0,0 0,0 0,0 0,0 0.01,0 0.03,-0 0.04,-0 0,-0 0,-0 0,-0 0,-0 0,-0 0,-0 0,0 0,0 0.01,0 0,0 0,0 0,0.01 -0,0 -0,0 -0.01,0 -0.01,0 -0.01,0 -0.02,0 -0.01,0 -0.03,0 -0.04,0 -0,-0.01 -0.01,-0.02 -0.01,-0.03 -0,-0.01 -0,-0.02 -0,-0.02 -0,-0.02 -0.01,-0.03 -0.03,-0.04 -0.01,-0.01 -0.02,-0.01 -0.03,-0.02 0,-0 0.01,-0.01 0,-0.01 -0,-0 -0,-0.01 -0.01,-0.01 -0,-0 -0.01,-0 -0.01,-0 -0.01,-0 -0.02,0 -0.03,0.01 -0.01,0 -0.02,0.01 -0.02,0.02 -0,0 -0,0.01 -0,0.01 0,0 0,0.01 0,0.01 0.01,0.01 0.01,0.01 0.02,0.01 -0,0.01 -0,0.01 -0,0.02 -0,0.02 0,0.03 0.01,0.05 -0.01,-0 -0.01,-0 -0.01,-0 -0.02,-0.01 -0.03,-0.01 -0.03,-0.01 -0.01,-0 -0.01,-0.01 -0.02,-0.01 -0.01,-0.01 -0.02,-0.01 -0.02,-0.03 0,-0.01 0.01,-0.02 0.01,-0.03 0.01,-0 0.01,-0.01 0.01,-0.02 0,-0 0,-0 0,-0 0,-0 0,-0 0,-0 0.01,-0.01 0.02,-0.01 0.04,-0.02 0.01,-0 0.02,-0.01 0.03,-0.01 0.01,-0 0.02,-0 0.03,0z"/>
  <path class="fil4" d="M1.26 0.32c0.01,0 0.02,0.01 0.04,0.01 0,0 0.01,0 0.01,0 0.01,0.01 0.03,0.01 0.04,0.03 0.02,0.02 0.03,0.03 0.03,0.05 0,0 0,0 0,0 0.01,-0 0.02,0 0.03,0 0.01,0 0.02,0 0.02,0 0.02,-0 0.03,-0 0.05,0 0.01,0.01 0.03,0.02 0.03,0.04 -0,0.01 -0,0.02 -0.01,0.03 -0.01,0.01 -0.01,0.03 -0.02,0.04 -0,0.01 -0.01,0.01 -0.02,0.02 -0.01,0.01 -0.01,0.02 -0.02,0.02 -0,0 -0.01,0.01 -0.01,0.01 -0.01,0.01 -0.02,0.02 -0.03,0.03 -0.01,0.01 -0.02,0.01 -0.03,0.02 -0,0 -0.01,0 -0.01,0.01 -0.02,-0 -0.03,-0.01 -0.05,-0.01 -0.01,-0 -0.02,-0.01 -0.03,-0.01 0,0 -0,-0 -0,-0 -0,-0 -0,-0 -0,-0 0,0 0,-0 0,-0 0.01,-0.01 0.02,-0.01 0.03,-0.02 0,-0 0,-0 0,-0 -0.01,-0.02 -0.01,-0.04 -0.01,-0.07 0,-0 -0,-0 -0,-0 -0.02,-0.01 -0.03,-0.01 -0.04,-0.01 -0,-0 -0.01,-0 -0.01,-0.01 0.01,0 0.02,0 0.04,0 0.01,0 0.01,0 0.02,0 0.03,0 0.04,0 0.06,-0 0.02,-0 0.04,-0 0.04,-0 0.01,-0 0.02,-0 0.04,-0.01 0.01,-0 0.02,-0.01 0.02,-0.01 0.01,-0 0.01,-0.01 0.01,-0.01 0,-0 0.01,-0.01 0.01,-0.01 0,-0 0,-0 0,-0 0,-0 -0,-0 -0,-0l-0 -0c-0,-0 -0,-0 -0,-0 -0,0 -0,0 -0,0l-0.01 0.01c-0,0 -0,0 -0,0 -0.02,0.01 -0.03,0.02 -0.05,0.02 -0.01,0 -0.02,0.01 -0.04,0.01 -0.02,0 -0.03,0 -0.04,0l0.02 -0.02c0.01,-0 0.02,-0.01 0.02,-0.02 0,-0.01 0.01,-0.02 0.01,-0.03 0,-0 0,-0 -0,-0 -0,-0 -0,-0 -0,-0.01 -0,-0.01 -0.01,-0.02 -0.02,-0.02 -0,0 -0,-0 -0,-0 -0,0 -0,0 -0,0 0,0 0,0 0,0 0,0 0,0.01 0,0.01 0,0.01 0,0.02 0,0.03 -0,0.01 -0.01,0.01 -0.02,0.02 0,-0 0.01,-0 0.01,-0 0,-0 0,-0 -0,-0.01 -0,-0 -0,-0 -0.01,-0 -0,0 -0,0 -0,0 -0,0 -0,0 -0,0 -0.01,0 -0.03,0 -0.04,0 -0,-0 -0,-0 -0,-0 0,0 0,0 -0,0 -0,-0 -0,-0 -0,-0 0,0 0,0 0,-0 0,-0.01 0.01,-0.01 0.01,-0.02 0,-0.01 0,-0.02 0,-0.04 -0,-0.01 -0.01,-0.02 -0.01,-0.03 -0.01,-0.02 -0.03,-0.03 -0.05,-0.04 -0,-0 -0,-0 -0,-0 0,0 0,0 0,0 0,-0 0,-0.01 0,-0.01z"/>
  <path class="fil5" d="M1.15 0.35c-0,0.01 -0.01,0.01 -0.01,0.02l0 -0c0,-0 0,-0 0,-0 0,-0 -0,-0 -0,-0 0,0 0,0 -0,0 -0.01,0 -0.01,0 -0.01,0 -0.01,0 -0.01,0.01 -0.01,0.01 -0,0.01 -0.01,0.02 -0.01,0.03 0,0 0,0.01 0,0.01 0,0.01 0,0.02 0.01,0.03 -0.02,-0.01 -0.04,-0.02 -0.05,-0.04 -0,-0 -0.01,-0.01 -0.01,-0.01 -0.01,-0.01 -0.01,-0.01 -0.01,-0.01 -0.01,-0.01 -0.01,-0.01 -0.01,-0.02 -0,-0 -0,-0 -0,-0 -0,-0 -0,0 -0,0l-0.02 0.02c0,-0.01 0,-0.02 0.01,-0.03 0.01,-0.02 0.03,-0.03 0.05,-0.02 0.01,0 0.02,0 0.03,0.01 0.01,0 0.02,0.01 0.03,0.01 0,0 0,0 0.01,0.01 0.01,0 0.01,0 0.02,0.01z"/>
  <path class="fil2" d="M0.82 0.35c0,0 0,0 0,0 0,0 0,0 0,0 0,0 -0,0 -0,0 -0.01,0 -0.01,0 -0.02,0.01 -0.01,0 -0.03,0.01 -0.04,0.01 -0.01,0 -0.01,0.01 -0.02,0.01 -0,0 -0.01,0 -0.01,0 -0,0 -0,0 -0,0 -0,0 -0,0 0,0 0,0 0,0 0,0 0,0 0,0 0.01,0 0,-0 0,-0 0,-0 0.02,-0.01 0.03,-0.01 0.05,-0.01 0.01,-0 0.01,-0 0.02,0 0.02,0 0.03,0.01 0.04,0.01 0.01,0 0.01,0.01 0.03,0.02 0,0 0,0 0,0 0,0 0,0 -0,0 -0,0 -0,0 -0,0 -0,0 -0,0 -0,0 -0.01,-0 -0.02,-0 -0.02,-0 -0.01,0 -0.03,0 -0.04,0.01 -0.02,0 -0.03,0 -0.04,0 -0,-0 -0,-0 -0.01,-0 -0.02,-0.02 -0.05,-0.04 -0.08,-0.05 0,0 0,0 0,0 -0,-0 -0,-0 -0,-0 0,0 0,0 0,0l0 -0.01c0,-0 0,-0 0,-0 0,-0 0,-0 0.01,-0 0.01,-0.01 0.02,-0.01 0.04,-0.01 0.02,-0 0.04,0 0.06,0.01 0.01,0 0.02,0 0.02,0z"/>
  <path class="fil6" d="M1.24 0.37c-0,0.01 -0.01,0.01 -0.02,0.01 -0.01,0 -0.01,0 -0.02,0.01 -0.01,0 -0.02,-0 -0.02,-0.01 -0,-0 -0,-0 -0,-0.01 -0,-0 -0,-0.01 0,-0.01 0.01,-0.01 0.01,-0.01 0.02,-0.02 0.01,-0 0.02,-0.01 0.03,-0.01 0,0 0.01,0 0.01,0 0,0 0.01,0.01 0.01,0.01 0,0 -0,0.01 -0,0.01z"/>
  <path class="fil7" d="M1.02 0.37c-0,-0 -0,-0 -0,-0 -0,0 -0,0 -0,0 -0,0 -0,0 -0,0 -0,0 -0,0 -0,0 -0,0 0,0 0,0 0,0.01 0.01,0.01 0.01,0.02 0.01,0.01 0.01,0.01 0.02,0.02 0.01,0.01 0.01,0.01 0.02,0.02 0,0 0.01,0.01 0.01,0.01 0,0 0,0 0,0 0,0 0.01,0 0.01,0.01 0,0 0,0 0.01,0.01 0,0 0.01,0 0.01,0.01 0.01,0 0.01,0.01 0.02,0.01 0,0 0,0 0,0 0,0 0,0 0.01,0 0,0 0,0 0.01,0.01 0,0 0.01,0 0.01,0 0.01,0 0.02,0.01 0.03,0.01 -0.01,0.02 -0.01,0.03 -0.01,0.05 0.01,0.02 0.01,0.04 0.02,0.06 0,0.01 0,0.02 0,0.03 -0.02,-0 -0.04,-0.01 -0.06,-0.02 -0,-0 -0.01,-0 -0.01,-0 -0.01,-0 -0.02,-0.01 -0.02,-0.01 -0.01,-0.01 -0.02,-0.02 -0.04,-0.03 -0,-0 -0.01,-0.01 -0.01,-0.01 -0.01,-0.02 -0.03,-0.03 -0.04,-0.05 -0,-0 -0,-0.01 -0.01,-0.02 -0,-0.01 -0.01,-0.01 -0.01,-0.02 -0,-0.02 -0.01,-0.04 -0.01,-0.05 -0,-0.01 -0,-0.02 -0,-0.03l0 -0.01 0.02 -0.02c0,-0 0,-0 0,-0 0,0 0,0 0,0z"/>
  <path class="fil2" d="M1.02 0.37c0,0.01 0.01,0.01 0.01,0.02 0,0 0.01,0.01 0.01,0.01 0.01,0.01 0.01,0.01 0.01,0.01 0.01,0.01 0.03,0.02 0.05,0.04 0.01,0.01 0.02,0.01 0.03,0.02 0.01,0 0.01,0 0.01,0.01 0.01,0 0.02,0.01 0.03,0.01 0.01,0 0.02,0 0.03,0.01 0,0 0.01,0 0.01,0 0,0 0.01,0 0.01,0 0.01,0 0.01,0 0.02,0 0.01,0 0.02,0 0.03,0 0.01,0 0.01,0 0.02,0 0.02,0 0.04,0 0.05,0 0.01,0 0.02,-0 0.04,-0 0.01,-0 0.03,-0 0.04,-0.01 0.02,-0.01 0.03,-0.01 0.05,-0.02 0,0 0,-0 0,-0l0.01 -0.01c0,-0 0,-0 0,-0 0,0 0,0 0,0l0 0c0,0 0,0 0,0 0,0 -0,0 -0,0 -0,0 -0.01,0.01 -0.01,0.01 -0,0 -0.01,0.01 -0.01,0.01 -0,0 -0.01,0.01 -0.02,0.01 -0.01,0 -0.02,0.01 -0.04,0.01 -0,0 -0.02,0 -0.04,0 -0.02,0 -0.03,0 -0.06,0 -0.01,-0 -0.01,-0 -0.02,-0 -0.01,-0 -0.02,-0 -0.04,-0 -0.01,-0 -0.03,-0 -0.04,-0.01 -0.01,-0 -0.02,-0.01 -0.02,-0.01 -0.01,-0 -0.02,-0.01 -0.03,-0.01 -0.01,-0 -0.01,-0 -0.01,-0 -0.01,-0 -0.01,-0.01 -0.01,-0.01 -0,-0 -0,-0 -0.01,-0 -0,-0 -0,-0 -0,-0 -0,-0 -0.01,-0.01 -0.02,-0.01 -0,-0 -0.01,-0.01 -0.01,-0.01 -0,-0 -0.01,-0 -0.01,-0.01 -0,-0 -0,-0 -0.01,-0.01 -0,-0 -0,-0 -0,-0 -0,-0 -0.01,-0 -0.01,-0.01 -0.01,-0.01 -0.02,-0.01 -0.02,-0.02 -0.01,-0.01 -0.01,-0.01 -0.02,-0.02 -0.01,-0.01 -0.01,-0.01 -0.01,-0.02 -0,-0 -0,-0 -0,-0 0,-0 0,-0 0,-0 0,-0 0,-0 0,-0 0,-0 0,-0 0,-0 0,-0 0,0 0,0z"/>
  <path class="fil1" d="M1.13 0.37c-0.01,0.01 -0.01,0.02 -0.01,0.03 -0,0.01 0,0.02 0.02,0.03 0.01,0.01 0.02,0.01 0.02,0.01 0,0 0.01,0.01 0.03,0.01 0,0 0,0 0.01,0 0.01,0 0.03,0.01 0.04,0.01 0.02,0 0.04,0.01 0.06,0.01 0.01,0 0.03,0 0.04,-0 0.01,-0 0.01,-0 0.02,-0 0.01,-0 0.02,-0.01 0.02,-0.02 0,-0.01 0,-0.02 -0,-0.03 -0,-0 -0,-0.01 -0,-0.01 0,-0 0,-0 0,-0 0,-0 0,-0 0,-0 0,0 0,0 0,0 0.01,0 0.01,0.01 0.02,0.02 0,0 0,0.01 0,0.01 0,0 0,0 0,0 -0,0.01 -0,0.02 -0.01,0.03 -0,0.01 -0.01,0.01 -0.02,0.02 -0,0 -0.01,0 -0.01,0 -0.02,0 -0.03,0 -0.05,0 -0.02,-0 -0.05,-0 -0.06,-0.01 -0.01,-0 -0.01,-0 -0.02,-0 -0.01,-0 -0.02,-0 -0.03,-0.01 -0,-0 -0.01,-0 -0.01,-0 -0,-0 -0.01,-0 -0.01,-0 -0,-0 -0.01,-0 -0.03,-0.01 -0.01,-0.01 -0.03,-0.01 -0.04,-0.02 -0.01,-0.01 -0.01,-0.01 -0.02,-0.02 -0,-0 -0,-0.01 -0,-0.01 0,-0.01 0,-0.02 0.01,-0.03 0,-0 0.01,-0.01 0.01,-0.01 0,-0 0.01,-0 0.01,-0 0,0 0,0 0,0 0,0 0,0 0,0 0,0 -0,0 -0,0l-0 0z"/>
  <path class="fil7" d="M1.24 0.37c0.01,0.01 0.02,0.01 0.03,0.02 0.01,0.01 0.02,0.02 0.03,0.04 0,0.01 0,0.01 0,0.02 0,0.01 0,0.02 0.01,0.03 -0.02,-0 -0.04,-0 -0.06,-0.01 -0.01,-0 -0.03,-0.01 -0.04,-0.01 -0.01,-0.02 -0.01,-0.03 -0.01,-0.05 0,-0.01 0,-0.01 0,-0.02 0.01,-0 0.01,-0 0.02,-0.01 0.01,-0 0.01,-0.01 0.02,-0.01z"/>
  <path class="fil2" d="M0.99 0.39c-0,0.01 -0,0.02 0,0.03 0,0.02 0.01,0.04 0.01,0.05 0,0.01 0,0.02 0.01,0.02 0.01,0.01 0.01,0.02 0.01,0.02 0.01,0.02 0.02,0.04 0.04,0.05 0.01,0.01 0.01,0.01 0.01,0.01 0.01,0.01 0.02,0.02 0.04,0.03 0.01,0 0.02,0.01 0.02,0.01 0,0 0.01,0 0.01,0 0.02,0.01 0.04,0.01 0.06,0.02 0.02,0 0.03,0.01 0.05,0.01 0.01,0 0.02,0 0.02,0 0.02,0 0.03,0 0.04,0 0.01,0 0.02,-0 0.03,-0 0.01,-0 0.02,-0 0.03,-0.01 0.01,-0 0.01,-0 0.01,-0.01 0.01,-0 0.02,-0.01 0.03,-0.02 0.01,-0.01 0.02,-0.01 0.03,-0.03 -0.01,0.04 -0.07,0.07 -0.1,0.07 -0.02,0 -0.04,0 -0.06,0 -0.02,-0 -0.03,-0 -0.05,-0.01 -0.02,-0 -0.04,-0.01 -0.06,-0.02 -0.01,-0 -0.02,-0.01 -0.03,-0.01 -0.02,-0.01 -0.04,-0.01 -0.05,-0.02 -0.01,-0.01 -0.02,-0.02 -0.03,-0.02 -0.01,-0.01 -0.02,-0.02 -0.02,-0.03 -0.01,-0.01 -0.02,-0.03 -0.02,-0.04 -0,-0.01 -0.01,-0.02 -0.01,-0.03 -0.01,-0.03 -0.01,-0.07 -0,-0.1z"/>
  <path class="fil8" d="M0.98 0.4c0,0.01 -0,0.01 -0,0.02 0,0 0,0 0,0 0,0.01 0,0.01 0,0.01 0,0.02 0.01,0.04 0.01,0.06 0,0.01 0.01,0.02 0.01,0.03 0.01,0.01 0.01,0.03 0.02,0.04 0.01,0.01 0.01,0.02 0.02,0.03 0.01,0.01 0.02,0.02 0.03,0.02 0.02,0.01 0.04,0.02 0.05,0.02 0.01,0 0.02,0.01 0.03,0.01 0.02,0.01 0.04,0.01 0.06,0.02 0.01,0 0.03,0 0.05,0.01 0.02,0 0.04,0 0.06,-0 0.02,-0 0.04,-0.01 0.06,-0.02 0.01,-0.01 0.03,-0.02 0.04,-0.03 0,-0 0.01,-0.01 0.01,-0.01 0,-0 0,-0 0,-0 0,0 0,-0 0,-0 0,-0 0,-0 0,-0 0,0 0,0 0,0 0,0 0,0 0.01,0.01 0.01,0.01 0.02,0.02 0.03,0.03 0,0 0.01,0.01 0.01,0.02 0.01,0.01 0.02,0.02 0.03,0.04 0,0 0,0.01 0.01,0.02 0.01,0.02 0.02,0.05 0.03,0.07 0,0.01 0.01,0.03 0.01,0.05 0,0.03 0,0.06 0,0.09 0,0 -0,0 -0,0 -0,0 -0,0 -0,0 -0.01,-0 -0.01,-0 -0.02,-0 -0.01,0 -0.01,0 -0.02,0 -0.01,0 -0.02,0.01 -0.03,0.01 0.01,-0.03 0.01,-0.06 -0,-0.08 -0.01,-0.03 -0.02,-0.05 -0.04,-0.07 -0.02,-0.01 -0.03,-0.02 -0.06,-0.03 -0.02,-0 -0.04,-0 -0.05,-0 -0.02,0 -0.05,0.02 -0.07,0.03 -0.01,0.01 -0.02,0.01 -0.02,0.02 -0,0 -0,0 -0,0 -0,0 -0,0 -0,0 -0,-0 -0.01,-0 -0.01,-0.01 -0.02,-0.02 -0.04,-0.03 -0.06,-0.04 -0.02,-0.01 -0.04,-0.01 -0.06,-0.02 -0.02,-0 -0.03,-0 -0.04,-0 -0.04,0 -0.07,0 -0.11,-0 0,-0 0,-0.01 -0,-0.01l0.02 0c0,0 0,0 0,0 0,0 0,-0 0,-0 0,-0 -0,-0 -0,-0 -0,-0 -0.01,-0 -0.01,-0 -0,0 -0,-0 -0,-0l-0.02 -0.01c-0,-0 -0,-0 -0,-0 0,-0 0,-0 0,-0 0.01,-0 0.01,0 0.02,0 0,0 0,0 0,0 0,0 0,0 0,0 0,0 0,-0 0,-0 0,0 0,-0 -0,-0l-0 -0.01c0,-0 0,-0.01 0,-0.01l0 0c0,0 0,0 0,0 0,0 0,-0 0,-0 0,0 0,0 0,0 -0,-0.03 -0.02,-0.04 -0.04,-0.06 0,0 0,-0 -0,-0 -0,-0 -0,-0 0,-0 0,0 0,0 0,0 0.01,-0.01 0.02,-0.01 0.03,-0.01 0,-0 0,-0 0,-0 0,-0 -0,-0 -0,-0 -0,-0 -0,-0 -0,-0 0,-0 0,-0.01 0,-0.01 0,0 0.01,0 0.01,0 0,-0 0,-0 0,-0 0,-0 -0,-0 -0,-0 -0.01,-0.01 -0.02,-0.01 -0.03,-0.02 -0.01,-0.01 -0.02,-0.02 -0.03,-0.03 -0,-0 -0,-0.01 -0.01,-0.01l0.02 -0c0,-0 0,-0 0,-0 0,-0 0,-0 0,-0 -0,-0 -0,-0 -0,-0l-0.01 -0.01 0 -0.01c0,0 0.01,0.01 0.02,0.01 0,0 0,0 0,0l0.01 -0c0,0 0,-0 0,-0 0,-0 -0,-0 -0,-0 -0.01,-0.01 -0.02,-0.01 -0.03,-0.02 -0,-0 -0,-0.01 -0.01,-0.01 -0,-0 -0.01,-0.01 -0.01,-0.01l-0 -0.01 0.01 -0c-0,-0 0,-0 0,-0 0,0 0.01,0 0.01,-0 0,-0 0,-0 0,-0 0,-0 0,-0 0,-0 0,-0 -0,-0 -0,-0 -0.02,-0.01 -0.03,-0.02 -0.04,-0.04 -0,-0 -0,-0 -0.01,-0.01l0.01 -0.01c0.02,-0 0.05,-0 0.07,-0z"/>
  <path class="fil1" d="M0.66 0.41c0,0 0,0 0,0 0,0 0,0 0,0 0,0 0,0 0,0 -0,0.01 -0.01,0.01 -0.02,0.01 -0,0 -0,0 -0,0 -0,0.01 -0.01,0.03 -0.02,0.03 -0,0 -0.01,0 -0.02,0 -0,0 -0,0 -0.01,0 -0.01,0 -0.01,0.01 -0.02,0.01 -0,0 -0,0 -0,0 -0,0 -0,-0 -0,-0 0,-0 0,-0 0,-0 0.01,-0.01 0.01,-0.01 0.02,-0.02 0,-0 0,-0 0,-0.01 0,-0 0,-0 0,-0 0,-0 -0,-0 -0,-0 -0,-0 -0,-0 -0,-0 -0.01,-0.01 -0.01,-0.01 -0.01,-0.02 0,-0 0,-0 0,-0 0,-0 0,-0 0,-0 0,0 0,0 0,0 0,0 0.01,0.01 0.01,0.01 0,0 0,0 0,-0 0,-0 0,-0 0.01,-0.01 0,-0 0.02,-0.01 0.02,-0.01 0.01,-0 0.02,-0 0.03,-0.01 0,-0 0.01,-0 0.01,-0zm-0.03 0.02c-0.01,-0 -0.01,0 -0.01,0 -0.01,0 -0.01,0.01 -0.02,0.02 -0,0 0,0 0,0 0,0 0,0 0.01,0 0.01,-0 0.02,-0.01 0.02,-0.02 0,0 0,-0 0,-0 0,-0 -0,-0 -0,-0l0 0z"/>
  <path class="fil9" d="M0.9 0.42c0,0 0.01,0.01 0.01,0.01 0.01,0.02 0.02,0.03 0.04,0.04 0,0 0,0 0,0 0,0 0,0 -0,0 0,0 -0,0 -0,0 -0,0 -0.01,0 -0.01,0 -0.02,-0.01 -0.03,-0.03 -0.04,-0.04 -0.01,-0.01 -0.01,-0.01 -0.02,-0.01 -0,-0 -0,-0 -0,-0 0,-0 0,-0 0,-0 0.01,-0 0.02,-0 0.02,0z"/>
  <path class="fil3" d="M1.1 0.42c0,0.01 0.01,0.02 0.02,0.02 0.01,0.01 0.02,0.02 0.04,0.02 0.02,0.01 0.03,0.01 0.03,0.01 0,0 0.01,0 0.01,0 0,0 0.01,0 0.01,0 0.01,0 0.02,0 0.03,0.01 0.01,0 0.01,0 0.02,0 0.02,0 0.04,0.01 0.06,0.01 0.02,0 0.03,0 0.05,-0 0,-0 0.01,-0 0.01,-0l-0.02 0.02c-0.02,0 -0.04,0 -0.05,-0 -0.01,-0 -0.02,-0 -0.02,-0 -0.01,-0 -0.02,-0 -0.03,-0 -0.01,-0 -0.02,-0 -0.02,-0 -0.01,-0 -0.01,-0 -0.01,-0 -0.01,-0 -0.01,-0 -0.01,-0 -0.01,-0 -0.02,-0 -0.03,-0.01 -0.01,-0 -0.01,-0.01 -0.03,-0.01 -0,-0 -0.01,-0 -0.01,-0.01 -0.01,-0.01 -0.02,-0.01 -0.03,-0.02 -0,-0.01 -0.01,-0.02 -0.01,-0.03z"/>
  <path class="fil2" d="M0.93 0.47l-0.01 0c-0,0 -0.01,0 -0.01,0 -0.01,-0 -0.02,-0 -0.03,0 -0.02,0 -0.04,0.01 -0.06,-0 -0.01,-0 -0.01,-0.01 -0.01,-0.01 -0.01,-0.01 -0.02,-0.03 -0.03,-0.04 -0,-0 -0,-0 -0,-0 0,-0 0,-0 0,-0l0 0c0,-0 0,-0 0,-0 0,0 0,0 0,0l0 0c0,0 0,0 0,0 0.01,0.01 0.03,0.01 0.04,0 0.01,-0 0.02,-0 0.03,-0.01 0.01,-0 0.01,-0 0.02,-0 0,0 0,0 0,0 0.01,0 0.02,0.01 0.02,0.01 0,0.01 0.01,0.01 0.02,0.02 0.01,0.01 0.02,0.01 0.03,0.02z"/>
  <path class="fil2" d="M0.64 0.43c-0,0.01 -0.01,0.02 -0.02,0.02 -0,0 -0,-0 -0.01,-0 -0,-0 -0,-0 -0,-0 0,-0.01 0.01,-0.02 0.02,-0.02 0,-0 0.01,-0 0.01,-0 0,0 0,0 0,0 0,0 0,0 -0,0l0 0z"/>
  <path class="fil2" d="M0.94 0.53l0.01 0.01c0,0 0,0 0,0 0,0 0,0 -0,0 -0,0 -0,0 -0,0l-0.02 0c-0.02,0 -0.04,0 -0.06,0 -0.02,-0 -0.03,-0.01 -0.04,-0.02 -0,-0 -0,-0 -0.01,-0.01 -0,-0.01 -0.01,-0.03 -0.02,-0.04 -0,-0 -0,-0 -0,-0 0,-0 0,-0 0,-0 0,0 0,0 0,0 0.01,0.01 0.02,0.01 0.03,0.01 0.02,0 0.04,-0 0.05,-0.01 0,-0 0.01,0 0.01,0 0,0 0.01,0.01 0.01,0.02 0.01,0.01 0.01,0.02 0.02,0.02 0,0 0,0 0.01,0z"/>
  <path class="fil10" d="M0.92 0.48c0,0 0.01,0.01 0.01,0.01 0.01,0.01 0.01,0.01 0.01,0.01 0.01,0.01 0.02,0.02 0.03,0.02 0,0 0,0 0,0 0,0 -0,0 -0,0l-0.01 0c-0,0 -0,0 -0,-0 -0.01,-0 -0.01,-0 -0.02,-0.01 -0.01,-0.01 -0.02,-0.02 -0.03,-0.04 -0,-0 -0,-0 -0.01,-0.01 -0,-0 -0,-0 -0,-0 -0,-0 -0,-0 0,-0 0,-0 0,-0 0,-0 0,-0 0.01,-0 0.01,0z"/>
  <path class="fil8" d="M0.62 0.79c-0,0.01 -0.01,0.01 -0.01,0.01 -0.01,-0 -0.02,-0 -0.03,-0 -0.01,-0 -0.02,-0 -0.02,-0 -0.01,0 -0.02,0.01 -0.03,0.02 -0.01,0.01 -0.01,0.02 -0.02,0.03 -0,0.01 -0,0.03 0,0.04 0.01,0.01 0.02,0.03 0.03,0.03 0,0 0,0 0,0 0,0 0,-0 0,-0 0,-0 0,-0 0,-0l-0 -0.01c0,-0 0.01,-0 0.01,-0.01 0.01,0.03 0.02,0.06 0.03,0.09 0,0.01 0.01,0.02 0.02,0.03 0.01,0.01 0.02,0.01 0.03,0.02 0,0 0,0 0,-0 0.01,-0.01 0.02,-0.02 0.02,-0.03 0,-0.01 0,-0.01 0,-0.02 0,-0 -0,-0 -0,-0 -0,-0 -0.01,-0 -0.01,-0.01 -0,-0 -0.01,-0.01 -0.01,-0.01 -0.01,-0.02 -0.01,-0.05 -0.02,-0.07 -0,-0 -0,-0 -0,-0.01 0,-0 0,-0 0,-0 0,0 0,0 0,0 0,0 0,0 0,0 0.02,0.01 0.04,0.02 0.06,0.03 0.02,0.01 0.04,0.02 0.06,0.02 0.01,0 0.03,0 0.04,-0 0.02,-0.01 0.03,-0.03 0.04,-0.05 0,-0 0,-0 0,-0 0,0 0,0 0,0 0,0 0,0 0,0 -0,0.01 -0,0.02 -0.01,0.03 -0.01,0.02 -0.02,0.03 -0.04,0.03 -0,0 -0,0 -0,0 0,0 0,0 0,0 0.02,0.01 0.03,0.01 0.05,0.02 0.05,0.01 0.11,0.02 0.16,0.01l0 0.01c0.01,0.02 0.02,0.04 0.03,0.06 0.01,0.01 0.03,0.03 0.04,0.04 0.01,0.01 0.01,0.01 0.01,0.01 0,0 0,0.01 0,0.02 -0,0.01 -0,0.01 -0.01,0.02 -0.01,0.01 -0.01,0.03 -0.02,0.04l-0.01 0.02c-0,0 -0,0 -0,0 -0,0 -0,-0 -0,-0 -0.01,-0 -0.03,-0.01 -0.04,-0.01 -0,-0 -0.01,-0 -0.01,-0 -0.01,-0 -0.02,-0 -0.03,-0 -0.02,0 -0.02,0 -0.04,0 -0,0 -0.01,0 -0.02,0 -0.01,0 -0.02,0.01 -0.03,0.01 -0,0 -0,0 -0.01,-0 -0,-0 -0.01,-0 -0.01,-0 -0.02,-0.01 -0.05,-0.01 -0.07,-0 -0,0 -0,0 -0,-0 -0,-0 -0.01,-0.01 -0.01,-0.01 -0.01,-0.01 -0.01,-0.01 -0.02,-0.01 -0,0 -0,-0 -0.01,-0 -0,-0 -0,-0 -0,-0 -0.01,-0.01 -0.02,-0.01 -0.03,-0.02 -0,-0 -0,-0 -0,-0 -0,-0 -0,-0 -0,-0 -0,-0 -0,-0.01 -0.01,-0.01 -0.01,-0.01 -0.02,-0.01 -0.03,-0 -0,0 -0.01,0.01 -0.01,0.01 -0.01,0 -0.01,0.01 -0.02,0.01 -0,0 -0,0 -0,0 -0,0 -0,0 -0,0 -0,0 -0,0 -0.01,0 -0.01,0 -0.02,0 -0.03,0.01 -0,0 -0,0 -0,0 -0,0 -0,-0 -0,-0 -0,-0.01 -0,-0.01 -0,-0.02 -0.01,-0.03 -0.02,-0.06 -0.03,-0.09 -0.01,-0.02 -0.03,-0.04 -0.04,-0.05 -0.01,-0.01 -0.02,-0.01 -0.02,-0.02 -0.02,-0.01 -0.04,-0.02 -0.07,-0.03 -0.01,-0 -0.02,-0.01 -0.03,-0.01 -0.01,-0 -0.02,-0 -0.04,-0 -0.01,0 -0.02,0 -0.03,0 -0,0 -0.01,0 -0.01,0 -0,-0.03 0,-0.06 0,-0.1 0,-0.01 0,-0.02 0,-0.02 0,-0 0,-0 0,-0 0,0 0,0 0,0 0.01,0 0.02,0 0.03,0 0,-0 0.01,-0 0.02,-0.01 0.01,-0 0.02,-0 0.02,-0.01 0.01,-0 0.02,-0.01 0.02,-0.01 0.01,-0.01 0.02,-0.02 0.03,-0.03 0.01,-0.01 0.01,-0.02 0.02,-0.04 0,-0.01 0.01,-0.02 0.01,-0.03 0,-0.02 0,-0.02 -0,-0.03 -0,-0 -0,-0.01 -0.01,-0.02 -0,-0 -0,-0.01 -0.01,-0.02 -0,-0.01 -0.01,-0.01 -0.01,-0.01 -0.01,-0.01 -0.02,-0.02 -0.03,-0.03 0,0 0,-0 0,-0 -0,-0 -0,-0 -0,-0 0,0 0,0 0,0 0.01,-0.02 0.03,-0.03 0.04,-0.05 0,-0 0,-0 0,-0 0,-0 0,-0 0,-0l-0 -0 0.01 -0c0,0 0.01,0.01 0.01,0.01 0,0 0.01,0 0.01,0 0.01,-0 0.03,-0.01 0.04,-0.02 0,-0 0.01,-0.01 0.01,-0.01 0,-0 0,-0 0,-0 0,-0 0,0 0,0 0,0 0,0 -0,0 -0,0.01 -0.02,0.02 -0.03,0.03 -0,0 -0.01,0 -0.01,0 -0,0 -0,0 -0,0 -0,0 -0,0 -0,0 0,0 0,0 0,0 0.01,0 0.02,0 0.03,-0 0.01,-0.01 0.02,-0.02 0.03,-0.03 0,-0 0.01,-0.01 0.01,-0.01 0.01,-0.01 0.03,-0.01 0.05,-0.01 0.02,-0 0.04,-0.01 0.06,-0.03 0.01,-0.01 0.02,-0.02 0.02,-0.04 0,-0 0,-0 0,-0 0,0 0,0 0,0 0,0.03 -0.02,0.06 -0.05,0.07 -0,0 -0,0 -0,0 0,0.01 0,0.02 0,0.02 0,0.04 -0.01,0.08 -0.02,0.12 -0.01,0.02 -0.01,0.03 -0.01,0.05 -0,0.01 -0,0.03 -0,0.04zm0.01 0.26c0.02,0.01 0.04,0.02 0.06,0.03 0,0 0,0 0,0 0,0 0,0 0,0 0,0 0,-0 0,-0 0.01,-0.02 0.01,-0.04 0.01,-0.06 -0,-0.01 -0,-0.02 -0.01,-0.02 -0.01,-0 -0.02,-0.01 -0.03,-0.01 0,0 -0,0 -0,0 -0,0 -0,0 -0,0 0,0 0,0 0,0 0,0 0,0.01 0,0.01 -0,0.01 -0.01,0.03 -0.01,0.04 -0,0.01 -0.01,0.01 -0.01,0.01 -0,0 -0,0 -0,0 0,0 0,0 0,0l0 0z"/>
  <path class="fil3" d="M1.19 0.49c0.01,0 0.01,0 0.02,0.01 0.01,0 0.02,0.01 0.04,0.01 -0,0 0,0.01 0.01,0.01 0.01,0 0.02,0.01 0.04,0.01 0,0 0,0 0,0 0,0.02 0.01,0.04 0.01,0.07 0,0 0,0 -0,0 -0.01,0.01 -0.01,0.02 -0.03,0.02 -0,0 -0,0 -0,0 -0,0 -0,0 0,0 0,0 0,0 0,0 0.01,0.01 0.02,0.01 0.03,0.01 0.01,0 0.03,0.01 0.05,0.01 -0.01,0 -0.02,0.01 -0.03,0.01 -0.01,0 -0.02,0 -0.03,0 -0.01,0 -0.03,-0 -0.04,-0 -0.01,-0 -0.01,-0 -0.02,-0 -0.02,-0 -0.03,-0 -0.05,-0.01 -0,-0.01 -0,-0.02 -0,-0.03 -0.01,-0.02 -0.01,-0.04 -0.02,-0.06 -0.01,-0.02 -0,-0.04 0.01,-0.05z"/>
  <path class="fil1" d="M0.49 0.55c-0,0 -0,0 -0,0 -0,0 -0,-0 -0,-0 -0,-0.01 -0,-0.02 0.01,-0.02 0,-0 0,-0 0,-0 0,-0 0,-0 0,-0 0,0 0,0 0,0 0,0 0,0 0,0.01 -0,0.01 -0,0.01 -0.01,0.02 -0,0 -0,0 -0,0z"/>
  <path class="fil2" d="M0.83 0.53c0.01,0.01 0.02,0.01 0.03,0.02 0.02,0.01 0.04,0.01 0.06,0 0,0 0,0 0,0 0,0 0,0 0,0 0.01,0.02 0.03,0.04 0.05,0.05 0,0 0,0 0,0 0,0 0,0 -0,0 -0,0 -0,0 -0,0 -0.01,-0 -0.03,-0 -0.04,-0 -0.01,-0 -0.02,-0 -0.03,-0 -0.02,-0 -0.04,-0.01 -0.06,-0.02 -0,-0 -0,-0 -0,-0.01 -0,-0.01 -0.01,-0.03 -0.01,-0.04 0,0 0,0 0,-0 0,-0 0,-0 0,-0 0,0 0,0 0,0l0 0z"/>
  <path class="fil10" d="M0.94 0.55c0.01,0.01 0.02,0.03 0.03,0.03 0.01,0.01 0.02,0.02 0.03,0.02 0,0 0,0 0,0 0,0 -0,0 -0,0 -0,0 -0.01,0 -0.01,-0 -0.01,-0.01 -0.02,-0.02 -0.03,-0.03 -0.01,-0.01 -0.01,-0.02 -0.02,-0.03 0,0 -0,-0 -0,-0 -0,-0 0,-0 0,-0 0,0 0,-0 0,-0l0.01 -0z"/>
  <path class="fil2" d="M0.98 0.61c0,0 0,0 0,0 0,0 0,0 0,0 0,0 -0,0 -0,0 -0.01,0 -0.02,0.01 -0.03,0.01 0,0 0,0 -0,0 -0,0 -0,0 0,0 0,0 0,0 0,0 0.02,0.01 0.04,0.03 0.04,0.06 0,0 0,0 0,0 0,0 -0,0 -0,0 -0,0 -0,-0 -0,-0l-0 -0c-0.01,-0.02 -0.03,-0.03 -0.05,-0.03 -0.01,-0 -0.01,-0 -0.02,-0 -0.01,-0 -0.02,-0 -0.02,-0 -0.02,-0 -0.03,-0.01 -0.05,-0.02 -0,-0 -0,-0 -0,-0 -0,-0 -0,-0.01 -0,-0.01 -0,-0.01 -0.01,-0.02 -0.01,-0.03 0,-0 0,0 0,0 0,0 0,0.01 0.01,0.01 0.02,0.01 0.04,0.02 0.07,0.02 0,-0 0.01,-0 0.03,-0 0,-0 0.01,-0 0.01,-0 0.01,-0 0.01,-0 0.02,-0z"/>
  <path class="fil4" d="M0.38 0.85l-0 -0.01c0.01,-0 0.02,-0.01 0.02,-0.01 0,-0 0.01,-0.01 0.02,-0.02 0,-0 0,-0 0,-0 0,-0 0,-0 0,-0 0,-0 0,-0.01 0,-0.01 0,-0 0,-0 0,-0 0,-0.01 0.01,-0.02 0.01,-0.03 0,-0.01 0,-0.02 0,-0.03 0,-0 0,-0.01 -0,-0.01 -0,-0 -0,-0.01 -0,-0.02 -0,-0 -0,-0 -0,-0 -0.01,-0.01 -0.01,-0.02 -0.02,-0.03 -0,-0 -0,-0 -0,-0.01 -0,-0 -0,-0 -0,-0 -0,-0 -0.01,-0.01 -0.02,-0.02 -0,-0 -0.01,-0.01 -0.02,-0.01 -0,-0 -0.01,-0 -0.01,-0 -0.01,-0 -0.01,-0 -0.01,-0 -0.02,-0 -0.03,-0 -0.05,-0 -0.01,0 -0.02,0.01 -0.03,0.01 -0.01,0.01 -0.02,0.01 -0.03,0.02 -0.01,0.01 -0.01,0.02 -0.02,0.03 -0,0.01 -0,0.01 -0.01,0.02 -0,0.01 -0,0.02 -0,0.03 -0,0.01 -0,0.02 0,0.03 0,0.01 0.01,0.03 0.02,0.04 0.01,0.01 0.02,0.03 0.04,0.04 0,0.01 0.01,0.01 0.02,0.02 -0.01,-0 -0.02,-0.01 -0.02,-0.01 -0.02,-0.01 -0.03,-0.03 -0.05,-0.04 -0,-0.01 -0.01,-0.01 -0.01,-0.02 -0.01,-0.04 -0.01,-0.09 0.02,-0.13 0.02,-0.02 0.04,-0.03 0.07,-0.04 0.01,-0 0.03,-0 0.05,-0 0.01,0 0.01,0 0.02,0.01 0.01,0.01 0.03,0.01 0.04,0.02 0.01,0.01 0.02,0.02 0.02,0.03 0.01,0.01 0.02,0.03 0.02,0.04 0,0.02 0,0.04 -0,0.06 -0,0.01 -0,0.01 -0.01,0.01 -0.01,0.02 -0.03,0.04 -0.04,0.05 -0.01,0.01 -0.02,0.01 -0.02,0.01z"/>
  <path class="fil6" d="M0.38 0.84c-0.03,0.01 -0.06,0.01 -0.09,0 -0,-0 -0.01,-0 -0.01,-0 -0.02,-0.01 -0.03,-0.02 -0.04,-0.04 -0.01,-0.01 -0.01,-0.02 -0.02,-0.04 -0,-0.01 -0,-0.02 -0,-0.03 0,-0.01 0,-0.02 0,-0.03 0,-0.01 0,-0.01 0.01,-0.02 0.01,-0.01 0.01,-0.02 0.02,-0.03 0.01,-0.01 0.02,-0.02 0.03,-0.02 0.01,-0.01 0.02,-0.01 0.03,-0.01 0.02,-0 0.03,-0 0.05,0 0,0 0,0 0.01,0 0,0 0.01,0 0.01,0 0.01,0 0.01,0.01 0.02,0.01 0.01,0.01 0.02,0.01 0.02,0.02 0,0 0,0 0,0 0,0 0,0 0,0.01 0.01,0.01 0.01,0.02 0.02,0.03 0,0 0,0 0,0 0,0.01 0,0.02 0,0.02 0,0 0,0.01 0,0.01 -0,0.01 -0,0.02 -0,0.03 -0,0.01 -0,0.02 -0.01,0.03 -0,0 -0,0 -0,0 -0,0 -0,0.01 -0,0.01 -0,0 -0,0 -0,0 -0,0 -0,0 -0,0 -0.01,0.01 -0.02,0.02 -0.02,0.02 -0.01,0.01 -0.01,0.01 -0.02,0.01zm-0.12 -0.17c-0,0 -0.01,0.01 -0.01,0.02 -0,0.01 -0.01,0.01 -0.01,0.01 -0,0.02 -0,0.04 -0,0.06 0,0.01 0,0.02 0.01,0.03 0.01,0.03 0.04,0.04 0.07,0.05 0,0 0.01,0 0.02,0 0,0 0.01,0 0.01,0 0.01,-0 0.03,-0 0.04,-0.01 0.01,-0 0.02,-0.02 0.03,-0.02 0,-0 0.01,-0.01 0.01,-0.01 0.01,-0.01 0.01,-0.02 0.01,-0.03 0,-0.01 0,-0.02 0,-0.03 -0,-0.01 -0,-0.01 -0,-0.02 -0,-0.01 -0,-0.03 -0.01,-0.04 -0,-0 -0.01,-0.01 -0.01,-0.01 -0.01,-0.01 -0.03,-0.03 -0.05,-0.03 -0.01,-0 -0.02,-0 -0.03,-0 -0.03,0 -0.06,0.01 -0.08,0.04z"/>
  <path class="fil2" d="M0.99 0.7l0 0.01c0,0 0,0 0,0 0,0 -0,0 -0,0 0,0 -0,0 -0,-0 -0,-0 -0,-0 -0,-0 -0.01,-0 -0.01,-0.01 -0.02,-0 -0,0 -0,0 -0,0 0,0 0,0 0,0l0.02 0.01c0,0 0,0 0,0 0,0 0.01,0 0.01,0 0,0 0,0 0,0 0,0 -0,0 -0,0 0,0 -0,0 -0,0l-0.02 -0c-0.04,-0.01 -0.09,-0.02 -0.11,-0.05 -0.01,-0.01 -0.01,-0.01 -0.01,-0.02 0,-0 0,-0 0,-0 0,-0 0,-0 0,-0 0,0 0,0 0,0 0.01,0.01 0.01,0.01 0.02,0.01 0.01,0.01 0.03,0.01 0.05,0.02 0.01,0 0.01,0 0.02,0 0.01,0 0.01,0 0.02,0 0.02,0.01 0.03,0.02 0.04,0.03z"/>
  <path class="fil4" d="M0.42 0.68l0 0.01c0,0 0,0 0,0 0,0 -0,0 -0,0 -0,0 -0,-0 -0,-0 -0,-0 -0.01,-0 -0.01,-0.01 -0.01,-0.01 -0.01,-0.01 -0.02,-0.02 -0.01,-0.01 -0.01,-0.01 -0.02,-0.02 -0,-0 -0.01,-0 -0.01,-0 -0.01,-0 -0.02,-0 -0.03,-0 -0.01,0 -0.01,0 -0.01,0 -0.01,0 -0.02,0.01 -0.04,0.02 -0.01,0 -0.01,0.01 -0.01,0.01 -0,-0 -0,-0 -0.01,-0.01 0.02,-0.02 0.05,-0.04 0.08,-0.04 0.01,-0 0.02,0 0.03,0 0.02,0 0.03,0.02 0.05,0.03 0,0.01 0.01,0.01 0.01,0.01z"/>
  <path class="fil7" d="M0.41 0.69c0.01,0.01 0.01,0.02 0.01,0.04 0,0.01 -0,0.03 -0,0.04 -0,0.01 -0.01,0.02 -0.01,0.03 -0,0 -0.01,0.01 -0.01,0.01 -0,0 -0.01,0.01 -0.01,0.01 -0.01,0.01 -0.02,0.01 -0.03,0.01 -0.01,0 -0.01,0 -0.02,0 -0,-0 -0,-0 -0.01,-0 -0,-0 -0.01,-0 -0.01,-0 -0.01,-0 -0.02,-0 -0.02,-0.01 -0,-0 -0,-0 -0.01,-0.01 -0,-0 -0,-0 -0,-0 -0,-0 -0,-0 -0.01,-0 -0,-0 -0.01,-0.01 -0.01,-0.01 -0,-0 -0.01,-0.01 -0.01,-0.01 -0,-0 -0,-0 -0,-0 -0,-0 -0.01,-0.01 -0.01,-0.01 -0,-0.01 -0,-0.01 -0,-0.02 -0,-0.01 0,-0.02 0,-0.03 0,-0 0,-0.01 0,-0.01 0,-0 0,-0.01 0.01,-0.01 0,-0 0.01,-0.01 0.01,-0.01 0,-0 0.01,-0.01 0.01,-0.01 0.01,-0.01 0.02,-0.01 0.04,-0.02 0.01,-0 0.01,-0 0.01,-0 0.01,-0 0.02,-0 0.03,0 0,0 0.01,0 0.01,0 0.01,0.01 0.02,0.01 0.02,0.02 0.01,0.01 0.01,0.01 0.02,0.02zm-0.14 0.05c0,0 0.01,0.01 0.01,0.01 0.01,0.01 0.01,0.01 0.01,0.01 0.01,0.01 0.02,0.02 0.03,0.03 0.01,0.01 0.01,0.01 0.02,0 0.01,-0.01 0.01,-0.01 0.02,-0.02 0,-0 0.01,-0.01 0.02,-0.02 0.01,-0.01 0.01,-0.01 0.02,-0.02 0,-0 0,-0 -0,-0 -0,-0 -0,-0 -0,-0 -0.01,-0.01 -0.02,-0.02 -0.03,-0.03 -0,-0 -0.01,-0.01 -0.01,-0.01 -0.01,-0 -0.01,-0.01 -0.02,-0.01 -0,-0 -0,-0 -0.01,-0 -0.01,0.01 -0.02,0.02 -0.03,0.03 -0.01,0.01 -0.01,0.01 -0.02,0.02 -0.01,0 -0.01,0.01 -0.01,0.01 -0,0 -0,0 -0,0 0,0 0,0 0,0l0 0z"/>
  <path class="fil5" d="M0.26 0.67c0,0 0,0.01 0.01,0.01 -0,0 -0.01,0.01 -0.01,0.01 -0,0 -0,0.01 -0.01,0.01 -0,0 -0,0 -0,0.01 -0,0.01 -0,0.02 -0,0.03 0,0.01 0,0.01 0,0.02 0,0 0.01,0.01 0.01,0.01 0,0 0,0 0,0 0,0 0.01,0.01 0.01,0.01 0,0 0,0 0.01,0.01 0,0 0,0 0.01,0 0,0 0,0 0,0 0,0 0.01,0.01 0.01,0.01 0.01,0 0.01,0.01 0.02,0.01 0,0 0.01,0 0.01,0 0,0 0,0 0.01,0 0,0 0.01,0 0.02,-0 0.01,-0 0.02,-0 0.03,-0.01 0.01,-0.01 0.01,-0.01 0.01,-0.01 0.01,-0.01 0.01,-0.01 0.01,-0.01 0.01,-0.01 0.01,-0.02 0.01,-0.03 0,-0.01 0,-0.03 0,-0.04 -0,-0.01 -0.01,-0.03 -0.01,-0.04 0,0 0.01,0.01 0.01,0.01 0,0 0,0 0,0 0,0 0,-0 0,-0 0,-0 0,-0 0,-0l-0 -0.01c0.01,0.01 0.01,0.02 0.01,0.04 0,0.01 0,0.01 0,0.02 0,0.01 0,0.02 -0,0.03 -0,0.01 -0.01,0.02 -0.01,0.03 -0,0 -0.01,0.01 -0.01,0.01 -0.01,0.01 -0.02,0.02 -0.03,0.02 -0.01,0.01 -0.02,0.01 -0.04,0.01 -0,0 -0.01,-0 -0.01,-0 -0,-0 -0.01,-0 -0.02,-0 -0.03,-0.01 -0.05,-0.02 -0.07,-0.05 -0,-0.01 -0.01,-0.02 -0.01,-0.03 -0,-0.02 -0,-0.04 0,-0.06 0,-0 0,-0.01 0.01,-0.01 0,-0.01 0.01,-0.01 0.01,-0.02z"/>
  <path class="fil4" d="M0.28 0.74c-0,-0 -0,-0 -0,-0 0,-0 0,-0 0,-0 0,-0 0.01,-0.01 0.01,-0.01 0,-0 0.01,-0.01 0.02,-0.02 0.01,-0.01 0.02,-0.02 0.03,-0.03 0,-0 0,-0 0.01,0 0.01,0.01 0.01,0.01 0.02,0.01 0,0 0.01,0.01 0.01,0.01 0.01,0.01 0.02,0.02 0.03,0.03 0,0 0,0 0,0 0,0 0,0 0,0 -0,0.01 -0.01,0.01 -0.02,0.02 -0.01,0.01 -0.01,0.01 -0.02,0.02 -0.01,0.01 -0.01,0.02 -0.02,0.02 -0.01,0.01 -0.01,0 -0.02,-0 -0.01,-0.01 -0.02,-0.02 -0.03,-0.03 -0,-0 -0.01,-0.01 -0.01,-0.01 -0,-0 -0.01,-0.01 -0.01,-0.01zm0.11 -0c-0.02,-0.01 -0.03,-0.02 -0.04,-0.04 -0,-0 -0,-0 -0,-0 -0,0 -0,0 -0,0 -0,0 -0.01,0.01 -0.01,0.01 -0.01,0.01 -0.01,0.01 -0.03,0.02 -0,0 -0,0 -0,0 0,0 0,0 0,0 0,0 0,0 0.01,0.01 0.01,0.01 0.01,0.02 0.02,0.02 0.01,0.01 0.02,0.01 0.02,0.01 0,0 0,0 0,0 0,0 0,-0 0,-0 0.01,-0.01 0.01,-0.01 0.02,-0.02 0.01,-0.01 0.01,-0.01 0.02,-0.01 0,-0 0,-0 0.01,-0.01 0,-0 0,-0 0,-0 0,-0 -0,-0 -0,-0l0 0z"/>
  <path class="fil10" d="M0.38 0.74c-0,0 -0.01,0 -0.01,0.01 -0,0 -0.01,0.01 -0.02,0.01 -0.01,0.01 -0.01,0.01 -0.02,0.02 -0,0 -0,0 -0,0 -0,0 -0,-0 -0,-0 -0,-0 -0.01,-0.01 -0.02,-0.01 -0.01,-0 -0.01,-0.01 -0.02,-0.02 -0,-0 -0,-0 -0.01,-0.01 -0,-0 -0,-0 -0,-0 0,-0 0,-0 0,-0 0.01,-0.01 0.02,-0.01 0.03,-0.02 0.01,-0.01 0.01,-0.01 0.01,-0.01 0,-0 0,-0 0,-0 0,-0 0,0 0,0 0.01,0.01 0.03,0.03 0.04,0.04 0,0 0,0 0,0 0,0 -0,0 -0,0l0 0z"/>
  <path class="fil1" d="M0.65 0.81c-0,-0 -0,-0 -0,-0.01 -0,-0.02 0,-0.04 0.01,-0.06 0,-0.01 0,-0.01 0.01,-0.01 0,-0 0,-0 0,-0 0,-0 0,0 0,0 0,0 0,0 -0,0 -0.01,0.02 -0.01,0.03 -0.01,0.05 -0,0.01 -0,0.01 -0,0.02 -0,0 -0,0 -0,0 -0,0 -0,0 -0,0 -0,0 -0,-0 -0,-0l0 0z"/>
  <path class="fil2" d="M1.5 0.92l0 0.01c-0,0 -0.01,0.01 -0.01,0.02 -0,0.01 -0,0.01 -0,0.02 -0,0 -0,0 -0,0.01 -0,0 -0,0 -0,0.01l-0.01 0.02c-0,0.01 -0.01,0.03 -0.01,0.04 -0,0.01 -0,0.01 0,0.02 0,0 0,0.01 0,0.02 0,0 0,0 0,0 0,0 0,0 0,0 -0,0 0,0 0,0.01 0,0 0,0 0,0 0,0 0,0 0,0 0,0 0,0 0,0.01 0,0 0,0 0,0 -0,0 0,0.01 0,0.01 0,0 0,0.01 0,0.01 0,0 0,0.01 0,0.01 0,0 0,0.01 0.01,0.01 0.01,0.01 0.03,0.01 0.04,0.01l-0.02 0c0,-0 0,-0 -0,-0 -0.01,-0 -0.01,-0 -0.02,-0.01 -0.01,-0 -0.02,-0 -0.03,-0.01 -0.02,-0 -0.03,-0.01 -0.05,-0.02 -0.01,-0.01 -0.02,-0.03 -0.03,-0.04 -0.01,-0.02 -0.01,-0.05 -0,-0.07 0,-0.02 0.01,-0.04 0.01,-0.05 0.01,-0.03 0.02,-0.07 -0,-0.11 -0.01,-0.01 -0.02,-0.02 -0.03,-0.03 -0.02,-0.01 -0.05,-0.01 -0.08,-0.01 -0.01,0 -0.01,0.01 -0.02,0.01 0,0 0,0 0,0 -0,0 -0,0 -0,-0 -0,0 -0,-0 -0,-0l-0 -0.01c-0,-0 0,-0 0,-0 0.01,-0.01 0.02,-0.01 0.03,-0.02 0.03,-0.01 0.06,-0.01 0.09,-0 0.02,0.01 0.04,0.03 0.05,0.05 0.01,0.02 0.01,0.05 0.01,0.07 -0,0.01 -0,0.03 -0.01,0.05 -0,0.02 -0.01,0.04 -0.01,0.06 -0,0.02 0,0.04 0.02,0.06 0,0 0.01,0.01 0.01,0.01 0,0 0,0 0,0 0,0 0,-0 0,-0 0,0 -0,-0 -0,-0 -0,-0 -0,-0.01 -0.01,-0.01 -0.01,-0.02 -0.01,-0.05 -0.01,-0.08 0,-0.02 0.01,-0.04 0.01,-0.06 0,-0.01 0,-0.03 0,-0.05 -0,-0.02 -0.01,-0.05 -0.02,-0.07 -0.01,-0.01 -0.02,-0.02 -0.03,-0.03 -0.03,-0.02 -0.07,-0.02 -0.1,-0.01 -0.01,0 -0.02,0.01 -0.03,0.01 -0,0 -0.01,0.01 -0.02,0.01 0,0 -0,0 -0,0 -0,0 -0,0 -0,-0 -0,-0 -0,-0 -0,-0 -0,-0.01 -0.01,-0.01 -0.01,-0.02 -0,-0 -0,-0 -0,-0 -0,-0 -0,-0 -0,-0 0,-0 0,-0 0,-0 0.01,-0.01 0.02,-0.02 0.02,-0.02 0.02,-0.02 0.04,-0.03 0.07,-0.03 0.01,-0 0.03,-0 0.05,0 0.02,0.01 0.04,0.01 0.06,0.03 0.02,0.02 0.03,0.04 0.04,0.07 0.01,0.03 0.01,0.06 0,0.08zm-0.08 0.12c0,0.01 0,0.02 0.01,0.03 0.01,0.02 0.02,0.03 0.04,0.04 0,0 0,0 0,0 0,-0 0,-0 0,-0 0,-0 0,-0 0,-0 -0,-0 -0,-0 -0,-0 -0.01,-0 -0.01,-0.01 -0.01,-0.01 -0.01,-0.01 -0.02,-0.02 -0.03,-0.04 -0,-0 -0,-0.01 -0.01,-0.02 0,0 -0,0 -0,0 -0,0 -0,0 -0,0l0 0z"/>
  <path class="fil1" d="M1.43 1.13l-0.02 -0c-0.01,-0.01 -0.01,-0.01 -0.01,-0.02 -0.01,-0.02 -0.01,-0.03 -0.01,-0.05 -0,-0.02 0,-0.04 0,-0.05 0,-0.01 0.01,-0.03 0.01,-0.04 0,-0.01 0.01,-0.03 0.01,-0.04 0,-0.03 -0.01,-0.06 -0.03,-0.07 -0.01,-0.01 -0.02,-0.01 -0.03,-0.01 -0.01,-0 -0.02,-0 -0.03,-0 -0.01,0 -0.02,0 -0.03,0.01 -0,0 -0,0 -0,0l0 0.01c-0,0 -0.01,0 -0.01,0.01 -0,-0.02 -0.01,-0.05 -0.03,-0.06 0,0 0.01,0 0.01,0.01 0,0 0,0 0,-0 0,0 0,0 0,0 0,0 0,0 0,0 0,0 0.01,0.01 0.01,0.01 0,0 0,0 0,0 0,0 0,0 0,0 0,0 0,-0 0,-0 0.01,-0 0.01,-0.01 0.02,-0.01 0.01,-0.01 0.02,-0.01 0.03,-0.01 0.03,-0.01 0.07,-0.01 0.1,0.01 0.01,0.01 0.02,0.02 0.03,0.03 0.01,0.02 0.02,0.05 0.02,0.07 0,0.02 -0,0.03 -0,0.05 -0,0.02 -0.01,0.04 -0.01,0.06 -0.01,0.03 -0.01,0.05 0.01,0.08 0,0 0,0.01 0.01,0.01 0,0 0,0 0,0 0,0 -0,0 -0,0 -0,0 -0,-0 -0,-0 -0,-0 -0.01,-0.01 -0.01,-0.01 -0.01,-0.02 -0.02,-0.04 -0.02,-0.06 0,-0.02 0.01,-0.04 0.01,-0.06 0,-0.02 0.01,-0.03 0.01,-0.05 0,-0.03 -0,-0.05 -0.01,-0.07 -0.01,-0.02 -0.03,-0.04 -0.05,-0.05 -0.03,-0.01 -0.06,-0.01 -0.09,0 -0.01,0 -0.02,0.01 -0.03,0.02 -0,0 -0,0 -0,0l0 0.01c0,0 0,0 0,0 0,0 0,0 0,0 0,0 0,0 0,0 0,-0 0.01,-0.01 0.02,-0.01 0.02,-0.01 0.05,-0.01 0.08,0.01 0.01,0.01 0.02,0.02 0.03,0.03 0.02,0.03 0.01,0.07 0,0.11 -0,0.01 -0.01,0.04 -0.01,0.05 -0,0.02 -0,0.05 0,0.07 0,0.02 0.01,0.03 0.03,0.04z"/>
  <path class="fil1" d="M0.62 0.79c0,0.01 0,0.02 0.01,0.03 0,0 0,0 0,0 0.02,0 0.03,0 0.05,0 0.01,0 0.02,0 0.03,0.01 0,0 0,0 0,0 0,0 -0,0 -0,0 -0,0 -0,0 -0,0 -0,-0 -0.01,-0 -0.01,-0 -0.01,-0 -0.02,-0 -0.02,-0 -0.03,-0 -0.06,-0 -0.09,-0 -0,-0 -0.01,0 -0.01,0 -0.01,0 -0.01,0.01 -0.02,0.02 -0.01,0.01 -0.01,0.02 -0.01,0.03 -0,0 0,0.01 0,0.01 0,0.01 0,0.01 0,0.02 -0,0 -0.01,0 -0.01,0.01 -0,-0.01 -0,-0.02 -0.01,-0.03 -0,-0.01 -0,-0.01 0,-0.02 0,-0.01 0.01,-0.02 0.01,-0.03 0.01,-0.01 0.01,-0.01 0.02,-0.01 0.01,-0 0.03,-0 0.04,0 0,0 0,-0 0,-0 0,0 0,-0 0,-0 0,-0 0,-0 -0,-0 -0,-0.01 -0.01,-0.01 -0.01,-0.02 0,-0 0.01,-0 0.01,-0.01z"/>
  <path class="fil2" d="M0.61 0.79c0,0.01 0,0.02 0.01,0.02 0,0 0,0 0,0 0,0 -0,0 -0,0 0,0 -0,0 -0,0 -0.01,-0 -0.03,-0 -0.04,-0 -0.01,0 -0.02,0.01 -0.02,0.01 -0.01,0.01 -0.01,0.02 -0.01,0.03 -0,0.01 -0,0.01 -0,0.02 0,0.01 0,0.02 0.01,0.03l0 0.01c0,0 0,0 0,0 0,0 -0,0 -0,0 -0,0 -0,0 -0,-0 -0.01,-0.01 -0.02,-0.02 -0.03,-0.03 -0.01,-0.01 -0.01,-0.02 -0,-0.04 0,-0.01 0.01,-0.02 0.02,-0.03 0.01,-0.01 0.02,-0.02 0.03,-0.02 0.01,-0 0.02,-0 0.02,0 0.01,0 0.02,0 0.03,0z"/>
  <path class="fil2" d="M1.41 1.13c-0,-0 -0.01,-0 -0.01,-0 -0,-0 -0,-0 -0.01,-0 -0.03,-0.03 -0.04,-0.07 -0.04,-0.11 0,-0.01 0,-0.02 0.01,-0.03 0.01,-0.04 0.02,-0.08 -0.01,-0.11 -0.01,-0.01 -0.03,-0.02 -0.05,-0.02 -0,0 -0.01,0 -0.02,0l-0 -0.01c-0,-0 0,-0 0,-0 0.01,-0 0.02,-0 0.03,-0.01 0.01,-0 0.02,-0 0.03,0 0.01,0 0.02,0.01 0.03,0.01 0.02,0.02 0.03,0.04 0.03,0.07 -0,0.02 -0,0.03 -0.01,0.04 -0,0.02 -0.01,0.03 -0.01,0.04 -0,0.02 -0.01,0.04 -0,0.05 0,0.02 0.01,0.03 0.01,0.05 0,0.01 0.01,0.02 0.01,0.02z"/>
  <path class="fil3" d="M0.38 0.84l0 0.01c-0.03,0.01 -0.06,0.01 -0.09,0.01 -0.01,-0.01 -0.01,-0.01 -0.02,-0.02 0,0 0.01,0 0.01,0 0.03,0.01 0.06,0.01 0.09,-0z"/>
  <path class="fil8" d="M1.41 1.13l0.02 0c0.01,0.01 0.03,0.02 0.05,0.02 0.01,0 0.02,0 0.03,0.01 0.01,0 0.01,0 0.02,0.01 0,0 0,0 0,0 -0.01,0.01 -0.01,0.01 -0.02,0.02 -0,0 -0.01,0 -0.01,0 -0.01,0 -0.03,0 -0.04,-0 -0.01,-0.01 -0.02,-0.01 -0.03,-0.02 -0.02,-0.02 -0.05,-0.03 -0.08,-0.03 -0.01,-0 -0.02,0 -0.03,0 -0.01,0 -0.02,0 -0.03,0.01 -0.01,0 -0.02,0.01 -0.03,0.01 -0,0 -0,0 -0,0 -0,0 -0,-0 -0,-0 0,0 0,0 0,0l0.02 -0.04c0,-0.01 0.01,-0.01 0.01,-0.02 0,-0.01 0.01,-0.02 -0,-0.03 -0.01,-0.01 -0.02,-0.02 -0.03,-0.04 -0,-0.02 0,-0.03 0.01,-0.05 0.01,-0.02 0.01,-0.03 0.01,-0.03 0.01,-0.03 0.02,-0.07 0.02,-0.1 0,-0 0.01,-0.01 0.01,-0.01 0.01,-0 0.01,-0 0.02,-0 0.02,-0 0.03,0 0.05,0.02 0.03,0.03 0.02,0.08 0.01,0.11 -0,0.01 -0,0.02 -0.01,0.03 -0.01,0.04 0,0.09 0.04,0.11 0,0 0,0 0.01,0 0,0 0,0 0.01,0z"/>
  <path class="fil1" d="M1.16 1.07c-0.01,-0 -0.02,-0 -0.02,0 -0.03,-0.02 -0.05,-0.05 -0.07,-0.08 -0,-0.01 -0.01,-0.02 -0.01,-0.02 0,-0 0,-0 0,-0 -0,-0 -0,-0 -0,-0 0,0 0,0 0,0 -0,0 -0.01,0 -0.01,0 -0.01,0 -0.01,0.01 -0.03,0.01l-0.03 0.01 -0 -0.01c0.03,-0 0.05,-0.01 0.07,-0.02 0,-0 0,-0 0,-0 -0,-0.01 -0,-0.02 -0,-0.03 0,-0.02 0,-0.04 0,-0.05 0,-0.01 -0,-0.01 -0,-0.02 -0,-0 -0,-0 0,-0 0,-0 0,-0 0,-0 0,0 0,0 0,0 0.01,0.01 0.01,0.02 0.01,0.02 0,0.02 -0,0.04 0,0.06 0,0.03 0.01,0.05 0.03,0.07 0.01,0.01 0.02,0.03 0.04,0.04 0,0 0.01,0.01 0.02,0.01z"/>
  <path class="fil4" d="M1.54 1.16c-0.01,-0 -0.02,-0.01 -0.04,-0.01 -0,-0 -0.01,-0.01 -0.01,-0.01 -0,-0 -0,-0.01 -0,-0.01 -0,-0 -0,-0 -0,-0 0,-0 0,-0 0,-0 0,-0 0,-0 0,-0 0,0 0,0 0,0 0.02,0.01 0.04,0.02 0.06,0.02 0.01,0 0.02,0 0.04,-0 0.01,-0 0.02,-0.01 0.03,-0.01 0,-0 0.01,-0 0.01,-0.01 0,-0 0.01,-0.01 0.01,-0.01 0.01,-0.01 0.01,-0.01 0.01,-0.01 0.01,-0.01 0.01,-0.02 0.01,-0.03 0,-0.01 0,-0.03 0,-0.04 -0,-0.02 -0,-0.03 -0.01,-0.04 -0,-0 -0,-0.01 -0.01,-0.01 -0,-0 -0.01,-0.01 -0.01,-0.01 -0.01,-0.01 -0.02,-0.01 -0.03,-0.02 -0,-0 -0,-0 -0,-0 -0,-0 -0,-0 -0,-0 -0,-0 -0.01,-0 -0.01,-0 -0,-0 -0,-0 -0,-0 -0.02,-0 -0.03,-0 -0.05,-0 -0,0 -0.01,0 -0.01,0 -0.01,0 -0.02,0.01 -0.03,0.01 -0,0 -0,0 -0,0 -0,0 -0,-0 -0,-0l-0 -0c0,-0.01 0,-0.01 0.01,-0.02 0,-0 0.01,-0 0.01,-0 0.01,-0.01 0.03,-0.01 0.04,-0.01 0.01,0 0.02,0 0.03,0 0,0 0.01,0 0.01,0 0.01,0 0.01,0 0.02,0.01 0.03,0.01 0.05,0.03 0.06,0.06 0.01,0.01 0.01,0.02 0.01,0.03 0,0.01 0,0.03 -0,0.04 -0,0 -0,0.01 -0.01,0.02 -0.01,0.02 -0.02,0.03 -0.03,0.04 -0.02,0.02 -0.05,0.03 -0.09,0.03 -0.01,-0 -0.01,-0 -0.02,-0z"/>
  <path class="fil6" d="M1.49 1.13c-0,-0 -0,-0.01 -0,-0.01 0,0 0,0 0,0 0,0 0.01,0 0.01,0.01 0.02,0.01 0.04,0.02 0.07,0.02 0.02,0 0.03,-0 0.05,-0.01 0,-0 0.01,-0.01 0.02,-0.02 0,-0 0,-0 0.01,-0.01 0,-0 0.01,-0.01 0.01,-0.02 0,-0.01 0.01,-0.02 0.01,-0.03 0,-0.01 -0,-0.02 -0,-0.03 -0,-0 -0,-0.01 -0,-0.03 -0,-0.01 -0,-0.01 -0.01,-0.01 -0,-0 -0,-0 -0,-0 -0,-0.01 -0.01,-0.01 -0.02,-0.02 -0.01,-0.01 -0.02,-0.01 -0.02,-0.01 -0,-0 -0.01,-0 -0.01,-0 -0.01,-0 -0.01,-0 -0.01,-0 -0,-0 -0.01,-0 -0.01,-0 -0.01,-0 -0.01,-0 -0.01,-0 -0.01,0 -0.03,0 -0.04,0.01 -0.01,0 -0.02,0.01 -0.03,0.01 -0,-0.01 0,-0.01 0,-0.02l0 0c0,0 0,0 0,0 0,0 0,0 0,-0 0.01,-0.01 0.02,-0.01 0.03,-0.01 0.01,-0 0.01,-0 0.01,-0 0.02,-0 0.03,-0 0.05,0 0,0 0,0 0,0 0,0 0.01,0 0.01,0 0,0 0,0 0,0 0,0 0,0 0,0 0.01,0 0.02,0.01 0.03,0.02 0,0 0.01,0.01 0.01,0.01 0,0.01 0.01,0.01 0.01,0.01 0.01,0.01 0.01,0.03 0.01,0.04 0,0.01 -0,0.03 -0,0.04 -0,0.01 -0.01,0.02 -0.01,0.03 -0,0 -0.01,0.01 -0.01,0.01 -0.01,0 -0.01,0.01 -0.01,0.01 -0,0 -0,0 -0.01,0.01 -0.01,0 -0.02,0.01 -0.03,0.01 -0.01,0 -0.03,0.01 -0.04,0 -0.02,-0 -0.04,-0.01 -0.06,-0.02 -0,-0 -0,-0 -0,-0 -0,-0 -0,0 -0,0 0,0 0,0 0,0 -0,0 -0,0 0,0z"/>
  <path class="fil4" d="M1.49 1.11c-0,-0 -0,-0 -0,-0 0,-0 0,-0 0,-0 0,-0 0,-0 0.01,0 0.01,0 0.02,0.01 0.02,0.01 0.01,0 0.01,0 0.02,0.01 0.01,0 0.02,0 0.02,0 0.01,0 0.01,0 0.02,-0 0.02,-0 0.03,-0.01 0.04,-0.02 0.01,-0.01 0.02,-0.03 0.02,-0.05 0,-0.01 0,-0.02 0,-0.03 -0,-0 -0,-0.01 -0,-0.02 -0,-0 -0,-0.01 -0,-0.01 -0,-0.01 -0,-0.01 -0.01,-0.01 -0,-0.01 -0.01,-0.01 -0.01,-0.01 -0.01,-0.01 -0.01,-0.01 -0.02,-0.02 -0.01,-0.01 -0.02,-0.01 -0.03,-0.01 -0.01,-0 -0.01,-0 -0.02,-0 -0.01,0 -0.02,0 -0.03,0.01 -0.01,0 -0.03,0.01 -0.04,0.02 -0,0 -0,0 -0,0 -0,0 -0,0 -0,-0 0,-0 0,-0.01 0,-0.01 0,-0 0,-0.01 0,-0.01 0.01,-0.01 0.02,-0.01 0.03,-0.01 0.01,-0 0.03,-0.01 0.04,-0.01 0,0 0,0 0.01,0 0,0 0.01,0 0.01,0 0,0 0.01,0 0.01,0 0,0 0.01,0 0.01,0 0,0 0.01,0 0.02,0.01 0.01,0 0.01,0.01 0.02,0.02 0,0 0,0 0,0 0,0 0.01,0.01 0.01,0.01 0,0.01 0,0.02 0,0.03 0,0.01 0,0.02 0,0.03 -0,0.01 -0,0.02 -0.01,0.03 -0,0.01 -0.01,0.01 -0.01,0.02 -0,0 -0.01,0.01 -0.01,0.01 -0.01,0.01 -0.01,0.01 -0.02,0.02 -0.01,0.01 -0.03,0.01 -0.05,0.01 -0.02,0 -0.05,-0.01 -0.07,-0.02 -0,-0 -0.01,-0 -0.01,-0.01zm0.16 -0.1c-0,0 0,0 0,0.01 0,0 0,0 0,0 0,0 0,0.01 0,0.01 0,0 0,0 0,0 0,0 0,-0 -0,-0.01 0,0 0,0 0,0 -0,-0 -0,-0.01 -0,-0.01 0,0 0,0 0,0l-0 0z"/>
  <path class="fil3" d="M1.61 0.97c-0.01,0.02 -0.01,0.03 -0.03,0.03 -0.01,-0.01 -0.01,-0.02 -0.02,-0.01 -0,0 -0.01,0.01 -0.01,0.02 -0.02,0 -0.04,0 -0.06,-0l0.01 -0.02c0,0 0,0 0,0 0,-0 0,-0 0,-0 0.01,-0.01 0.02,-0.02 0.04,-0.02 0.01,-0 0.02,-0.01 0.03,-0.01 0.01,-0 0.01,-0 0.02,0 0.01,0 0.02,0.01 0.03,0.01z"/>
  <path class="fil10" d="M1.13 1.07c0.01,0.01 0.01,0.01 0.02,0.02 0,0 0,0 0,0.01 -0.01,0.02 -0.02,0.04 -0.03,0.06 -0.01,0.02 -0.02,0.04 -0.02,0.04 -0,0 -0,0 -0,0 -0,0 -0,0 -0,0 0,0 0,0 0,0 0,0 0,0 0,0 0.01,-0 0.02,-0.01 0.02,-0.01 0.01,-0 0.03,-0 0.05,0 0,0 0.01,0 0.01,0 0,0 0,0 0,0 0,0 0,-0 0,-0 0,0 0,0 0,0l0 -0.01c0.01,0.01 0.02,0.01 0.03,0 0.02,-0.01 0.02,-0.03 0.03,-0.04 0,-0.01 0.01,-0.01 0.01,-0.02l-0.02 0.04c0,0 0,0 0,0 0,0 0,0 0,0 0,0 0,-0 0,-0 0.01,-0 0.02,-0.01 0.03,-0.01 0.01,-0 0.02,-0.01 0.03,-0.01 0.01,-0 0.02,-0 0.03,-0 0.03,0 0.06,0.01 0.08,0.03 0.01,0.01 0.02,0.01 0.03,0.02 -0,0 -0,0 -0,0.01 -0,0.01 -0,0.01 0.01,0.01 -0,0 -0.01,0 -0.01,0 -0,0 -0,-0 -0,-0l-0 -0c-0,-0 -0,-0.01 -0,-0.01 -0.01,-0.01 -0.01,-0.02 -0.02,-0.02 -0.02,-0.01 -0.04,-0.02 -0.06,-0.02 -0.01,-0 -0.02,-0 -0.03,0 -0.01,0 -0.01,0 -0.02,0 -0,0 -0.01,0 -0.01,0 -0,0 -0.01,0 -0.01,0 -0,0 -0.01,0 -0.01,0 -0,0 -0.01,0 -0.01,0.01 -0.02,0.01 -0.03,0.02 -0.04,0.03l-0 0c-0,0 -0,0 -0,0 -0,-0 -0.01,-0 -0.01,-0 -0.01,-0 -0.02,-0 -0.03,-0.01 -0.01,-0 -0.02,-0 -0.04,-0 -0.01,0 -0.02,0 -0.02,0 -0.01,0 -0.01,0.01 -0.02,0.02 -0.01,0.01 -0.01,0.02 -0.01,0.03 0,0.01 0,0.02 0,0.03 0,0 0,0 0,0l0.01 0.02c0,0 0,0 0,0 0,0.01 0,0.01 0.01,0.02 0,0 0.01,0.01 0.01,0.03 0,0 0.01,0.01 0.01,0.02 0,0 0.01,0.01 0.01,0.01 0,0 0.01,0.01 0.01,0.01 0,0.01 0.01,0.01 0.02,0.02 0.01,0.01 0.03,0.02 0.05,0.02 0,0 0.01,0 0.01,0 0.02,0.01 0.05,0.01 0.07,0.01l-0.01 0c-0,0 -0,0 -0,0 -0.01,0 -0.03,0.01 -0.04,0.01 -0.02,-0 -0.04,-0.01 -0.06,-0.01 -0.03,-0.01 -0.06,-0.04 -0.09,-0.02 -0,0 -0.01,0 -0.02,0.01 -0.02,0.01 -0.03,0.01 -0.05,0.02 -0.02,0 -0.05,0.01 -0.07,0.01 -0.03,-0 -0.05,-0 -0.08,-0.01 -0.02,-0 -0.04,-0 -0.06,0 -0,0 -0.01,0 -0.03,0.01 -0.02,0.01 -0.04,0 -0.06,-0 0.02,-0 0.03,-0 0.05,-0.01 0.01,-0 0.01,-0 0.02,-0 0.01,-0 0.02,-0.01 0.03,-0.01 0.01,-0 0.02,-0.01 0.03,-0.02 0,-0 0.01,-0 0.01,-0.01 0,-0.01 0.01,-0.01 0.01,-0.02 0.01,-0.02 0.02,-0.05 0.02,-0.08 0,-0 -0,-0 -0,-0.01 -0,-0.01 0,-0.01 0,-0.02 0,-0.01 0,-0.02 0,-0.03 -0,-0 -0,-0 -0,-0 -0,-0.01 -0.01,-0.02 -0.02,-0.02 -0,-0 -0.01,-0 -0.01,-0.01 -0.01,-0 -0.02,-0 -0.02,-0.01 -0.01,-0 -0.02,-0 -0.02,-0 -0.01,-0 -0.01,-0 -0.02,0 -0,0 -0.01,0 -0.01,0 -0,0 -0,0 -0,0 -0,0 -0,-0 -0,-0 -0,-0 -0,-0 -0,-0 -0,-0 -0,-0 -0.01,-0.01 -0.01,-0.01 -0.02,-0.01 -0.03,-0.01 -0,0 -0,0 -0,0 -0,0 -0,-0 -0,-0 -0.01,-0.01 -0.01,-0.02 -0.03,-0.02 -0,-0 -0,-0 -0.01,-0 -0,-0 -0,-0 -0,-0 -0,-0.01 -0,-0.01 -0.01,-0.01 -0.01,-0 -0.01,0 -0.01,0 -0,0 -0,0.01 -0,0.01 -0,0 -0,0 -0,0 -0.01,0 -0.01,0 -0.01,0 -0.01,0 -0.01,0.01 -0.01,0.02 -0,0 -0,0 -0,0 -0,0 -0,0 -0.01,0 -0.01,-0 -0.01,-0 -0.01,-0 -0,0 -0,0 -0,0 -0,0 -0,0 -0,0 -0,-0 -0,0 -0,0 -0,0 -0,0 -0.01,0 -0.01,0 -0.01,0.01 -0.02,0.02 -0,0 -0,0 -0,0 -0.01,-0 -0.02,-0 -0.04,-0 -0,0 -0,0 -0.01,0 -0,0 -0.01,0 -0.01,0 -0.02,0 -0.03,0.01 -0.04,0.02 -0,0 -0,0.01 -0.01,0.01 -0,0.01 -0.01,0.01 -0.01,0.02 0,0.01 0,0.02 0.01,0.03 0,0 0,0 0,0 0,0 0,0 -0,0 -0,0.01 -0,0.03 -0,0.03 -0,0.01 0,0.02 0,0.03 0,0.01 0,0.01 0.01,0.02l-0.01 -0 -0.01 -0.02c-0,-0.01 -0,-0.01 -0,-0.02l-0 -0.02 -0 -0.03c0,-0 0,-0 0,-0 -0,-0.01 -0,-0.02 -0,-0.03 -0,-0.01 -0,-0.02 0.01,-0.02 0.01,-0.01 0.02,-0.02 0.03,-0.02 0.01,-0 0.01,-0.01 0.02,-0.01l0.02 -0 0.03 -0 0.02 0c0,0 0,0 0,0 0,0 0,-0 0,-0 0,0 0,-0 0,-0 -0,-0.02 -0,-0.03 -0.01,-0.05 -0,-0.01 -0,-0.02 -0.01,-0.02 -0.01,-0.02 -0.01,-0.03 -0.03,-0.05 -0.01,-0.01 -0.02,-0.02 -0.03,-0.03 -0.01,-0.01 -0.01,-0.01 -0.02,-0.01 -0.01,-0.01 -0.02,-0.01 -0.02,-0.01 -0.01,-0.01 -0.03,-0.01 -0.04,-0.02 -0,-0 -0.01,-0 -0.02,-0 -0.01,-0 -0.02,-0 -0.02,-0 -0.02,-0 -0.04,0 -0.06,0 -0.01,0 -0.02,0 -0.03,0.01 0.04,-0.02 0.07,-0.03 0.12,-0.02 0.02,0.01 0.05,0.02 0.07,0.03 0,0 0.01,0.01 0.02,0.02 0.02,0.01 0.03,0.03 0.04,0.05 0.02,0.03 0.03,0.05 0.03,0.09 0,0.01 0,0.01 0,0.02 0,0 0,0 0,0 0,0 0,0 0,-0 0.01,-0 0.02,-0.01 0.03,-0.01 0,-0 0.01,-0 0.01,-0 0,-0 0,-0 0,-0 0,-0 0,-0 0,-0 0,-0.01 0.01,-0.01 0.02,-0.01 0.01,-0 0.01,-0.01 0.01,-0.01 0.01,-0.01 0.02,-0.01 0.03,0 0,0 0,0.01 0.01,0.01 0,0 0,0 0,0 0,0 0,0 0,0 0.01,0 0.02,0.01 0.03,0.02 0,0 0,0 0,0 0,0 0.01,0 0.01,0 0.01,0 0.02,0 0.02,0.01 0.01,0 0.01,0.01 0.01,0.01 0,0 0,0 0,0 0.02,-0.01 0.05,-0 0.07,0 0,0 0.01,0 0.01,0 0,0 0,0 0.01,0 0.01,-0 0.02,-0.01 0.03,-0.01 0.01,-0 0.02,-0 0.02,-0 0.02,-0 0.03,-0 0.04,-0 0.01,-0 0.02,-0 0.03,0 0,0 0.01,0 0.01,0 0.01,0 0.03,0 0.04,0.01 0,0 0,0 0,0 0,0 0,-0 0,-0l0.01 -0.02c0,0.01 0.01,0.01 0.01,0.02 0.01,0.01 0.02,0 0.03,-0 0,-0.01 0.01,-0.01 0.01,-0.02 0.02,-0.03 0.02,-0.04 0.03,-0.06 0.01,-0.01 0.01,-0.02 -0.01,-0.04 -0.02,-0.01 -0.03,-0.03 -0.04,-0.04 -0.01,-0.01 -0.02,-0.03 -0.03,-0.04 -0,-0.01 -0.01,-0.01 -0.02,-0.01 -0,-0 -0.01,-0 -0.02,-0 0.01,-0 0.02,-0.01 0.03,-0.01 0,-0 0.01,-0 0.01,-0 0,0 0,0 0,0 0,-0 0,0 0,0 0,0 0,0 0,0 0,0.01 0,0.02 0.01,0.02 0.01,0.03 0.04,0.06 0.07,0.08zm-0.21 0.21c-0,0 -0.01,0.01 -0.01,0.01l-0.01 -0c-0,-0 -0,-0 -0,-0 -0,0 -0,0 -0,0 -0,0.01 -0,0.03 -0,0.04l-0 0.01c-0,0 -0,0 -0,0.01 -0,0 -0,0.01 -0,0.01 -0,0 -0,0.01 -0,0.01 -0,0 -0,0 -0,0.01 -0,0 -0,0.01 -0,0.01 0,0 0,0.01 0,0.01 -0,-0 -0,-0 -0.01,-0 -0,0 -0,0 -0,0 -0.01,0.01 -0.02,0.02 -0.03,0.03 -0,0 -0,0 -0,0 0,0 0,0 0,0 0.01,0 0.02,0 0.02,0.01 0.02,0.01 0.03,0.01 0.05,0.01 0.01,0 0.01,0 0.02,0 0.02,0 0.03,0 0.03,0 0.02,-0 0.04,-0 0.06,-0.01 0.01,-0 0.02,-0.01 0.03,-0.01 0,-0 0.01,-0.01 0.02,-0.01 0.01,-0 0.01,-0.01 0.01,-0.01 0.01,-0 0.01,-0.01 0.02,-0.02 0,-0 0,-0 0,-0.01 -0,-0 -0.01,-0.01 -0.01,-0.02 -0,-0 -0,-0 -0,-0l-0 -0c-0,-0 -0,-0 -0,-0 -0,0 -0,0 -0,0 -0.01,0 -0.01,0.01 -0.02,0.01 -0,0 -0.01,0.01 -0.02,0.01 -0.01,0 -0.02,0.01 -0.03,0.01l-0.01 -0.01c0.02,-0 0.03,-0.01 0.05,-0.01 0.01,-0 0.02,-0.01 0.03,-0.01 0,-0 0,-0 0,-0l-0.02 -0.03c-0,-0.01 -0,-0.01 -0.01,-0.02 -0,-0 -0,-0.01 -0,-0.01 -0,-0.01 -0,-0.01 -0,-0.02 0,0 0,0 0,0 -0,-0 -0,-0 -0,-0 0,0 0,0 0,0l-0.01 0c-0.01,-0 -0.01,-0.01 -0.01,-0.01 0,-0 0.01,-0 0.01,-0.01 0,-0 0.01,-0 0.01,-0.01 0,-0.01 0,-0.02 0.01,-0.03 0,-0 0,-0 -0,-0 -0,-0 -0.01,-0 -0.01,-0 -0.02,-0.01 -0.04,-0.01 -0.05,-0.01 -0.01,-0 -0.02,0 -0.03,-0 -0,-0 -0.01,-0 -0.02,-0 -0,0 -0.01,0 -0.02,0 -0.01,0 -0.02,0 -0.03,0 -0.01,0 -0.03,0.01 -0.04,0.01 0,0 -0,0 -0,0 -0,0 -0,0 -0,0 0,0 0,0 0,0 0,0 0.01,0.01 0.01,0.01 0.01,0.01 0.01,0.02 0.01,0.04 0,0 0,0 0,0 0,0 0,0 0,0l0.02 0z"/>
  <path class="fil7" d="M1.61 0.97c0.01,0 0.01,0.01 0.02,0.02 0,0 0,0.01 0.01,0.01 0,0 0,0.01 0.01,0.01 0,0 0,0.01 0,0.01 0,0.01 0,0.02 0,0.02 0,0.01 0,0.02 -0,0.03 -0,0.02 -0.01,0.03 -0.02,0.05 -0.01,0.01 -0.03,0.02 -0.04,0.02 -0.01,0 -0.01,0 -0.02,0 -0,-0 -0.01,-0 -0.02,-0 -0,-0 -0.01,-0 -0.02,-0.01 -0.01,-0 -0.02,-0.01 -0.02,-0.01 -0,-0 -0,-0 -0.01,-0 -0,0 -0,0 -0,0 -0,0 0,0 0,0 -0,-0 -0,-0 -0,-0 -0,-0 -0,-0.01 -0,-0.01 0,-0 -0,-0 -0,-0 -0,-0 -0,-0 -0,-0.01 -0,-0 -0,-0 -0,-0 0,-0 -0,-0 -0,-0 -0,-0 -0,-0 -0,-0.01 0,-0 0,-0 -0,-0 -0,-0 -0,-0 -0,-0 -0,-0.01 -0,-0.02 -0,-0.02 -0,-0.01 -0,-0.01 -0,-0.02 0,-0.01 0,-0.03 0.01,-0.04 0.02,0 0.04,0 0.06,0l-0.04 0.04c0,0 0,0 -0,0 -0,0 -0,0 0,0 0,0 0,0 0,0 0.01,0 0.01,0.01 0.02,0.02 0.01,0.01 0.01,0.01 0.02,0.02 0.01,0.01 0.01,0.01 0.02,0.02 0,0 0,0 0.01,0 0,0 0,0 0,0 0,-0 0,-0 0,-0 0.01,-0.01 0.02,-0.02 0.03,-0.03 0,-0 0,-0 0.01,-0.01 0.01,-0.01 0.01,-0.01 0.02,-0.02 0,-0 0,-0.01 0,-0.01 0,-0 0,-0 0,-0 0,-0 -0,-0 -0,-0 -0.02,-0.02 -0.03,-0.03 -0.05,-0.04 0.02,0 0.03,-0.01 0.03,-0.03z"/>
  <path class="fil2" d="M1.06 1.18c0.01,-0.01 0.01,-0.03 0.02,-0.04 0,-0.01 0,-0.01 0.01,-0.02 0,-0.01 0,-0.01 -0,-0.02 -0,-0 -0.01,-0.01 -0.01,-0.01 -0.01,-0.01 -0.03,-0.03 -0.04,-0.04 -0.01,-0.02 -0.02,-0.04 -0.03,-0.06l0.03 -0.01c0.01,0 0.02,0 0.02,0 0.01,0 0.01,0.01 0.02,0.01 0.01,0.01 0.02,0.03 0.03,0.04 0.01,0.01 0.03,0.03 0.04,0.04 0.01,0.01 0.01,0.02 0.01,0.04 -0.01,0.02 -0.02,0.03 -0.03,0.06 -0,0.01 -0.01,0.01 -0.01,0.02 -0.01,0.01 -0.02,0.02 -0.03,0 -0,-0.01 -0,-0.01 -0.01,-0.02z"/>
  <path class="fil2" d="M0.63 1.04c-0,-0 -0,-0 -0,-0 0,-0 0,-0 0,-0 0.01,-0 0.01,-0.01 0.01,-0.01 0.01,-0.01 0.01,-0.02 0.01,-0.04 0,-0 -0,-0.01 -0,-0.01 0,-0 0,-0 0,-0 0,-0 0,-0 0,-0 0,0 0,0 0,0 0.01,0 0.02,0.01 0.03,0.01 0.01,0 0.01,0.01 0.01,0.02 0,0.02 -0,0.04 -0.01,0.06 -0,0 -0,0 -0,0 -0,0 -0,0 -0,-0 -0,-0 -0,-0 -0,-0 -0.02,-0.01 -0.04,-0.02 -0.06,-0.03z"/>
  <path class="fil4" d="M1.57 0.99c0.01,0.02 0.03,0.03 0.05,0.04 0,0 0,0 0,0 0,0 0,0 0,0 -0,0 -0,0.01 -0,0.01 -0.01,0.01 -0.01,0.01 -0.02,0.02 -0,0 -0,0 -0.01,0.01 -0.01,0.01 -0.02,0.02 -0.03,0.03 -0,0 -0,0 -0,0 -0,0 -0,0 -0,-0 -0,-0 -0,-0 -0.01,-0 -0.01,-0.01 -0.01,-0.01 -0.02,-0.02 -0.01,-0.01 -0.01,-0.01 -0.02,-0.02 -0.01,-0.01 -0.01,-0.01 -0.02,-0.02 0,0 -0,0 -0,0 -0,-0 -0,-0 -0,-0 0,-0 0,-0 0,-0l0.04 -0.04c0,-0.01 0.01,-0.01 0.01,-0.02 0.01,-0.01 0.02,0 0.02,0.01zm0.03 0.05c-0,-0 -0,-0 -0.01,-0.01 -0.01,-0.01 -0.02,-0.02 -0.03,-0.03 -0,-0 -0,-0 -0,-0 -0,0 -0,0 -0,0 -0.01,0.01 -0.01,0.01 -0.02,0.02 -0.01,0.01 -0.02,0.01 -0.02,0.02 -0,0 -0,0 -0,0 0,0 0,0 0,0 0.01,0.01 0.01,0.02 0.02,0.02 0,0 0.01,0.01 0.01,0.01 0,0 0,0 0.01,0 0,0 0,0 0,-0 0.01,-0.01 0.02,-0.02 0.03,-0.03 0,-0 0.01,-0 0.01,-0.01 0,-0 0,-0 0,-0 0,-0 -0,-0 -0,-0l0 0z"/>
  <path class="fil3" d="M0.56 1.2c0,-0 0,-0.01 -0,-0.01 -0,-0.01 -0,-0.02 -0.01,-0.03 -0,-0.01 -0,-0.01 -0,-0.02 -0,-0.01 -0.01,-0.01 -0.01,-0.02 -0,-0.01 -0.01,-0.02 -0.02,-0.03 -0,-0.01 -0.01,-0.01 -0.02,-0.02 -0.03,-0.03 -0.06,-0.05 -0.09,-0.06 -0.02,-0.01 -0.04,-0.01 -0.06,-0.01 -0,0 -0.01,0 -0.01,0 -0.01,0 -0.02,0 -0.03,0.01 -0.03,0.01 -0.05,0.02 -0.07,0.04 -0,0 -0.01,0.01 -0.01,0.01 -0,0.01 -0.01,0.01 -0.01,0.01 -0,0.01 -0.01,0.01 -0.01,0.02 -0,0.01 -0.01,0.02 -0.01,0.03 -0.01,0.01 -0.01,0.03 -0.01,0.04 -0,0.01 -0,0.01 0,0.02 0,0.02 0,0.03 0.01,0.04 0,0.01 0,0.01 0.01,0.02 0,0 0,0.01 0.01,0.01 0.01,0.01 0.01,0.01 0.02,0.02 0,0 0,0.01 0.01,0.01 0,0 0,0 0,0 0,0 0,0 0,0 0,0 0.01,0.01 0.01,0.01 0,0.01 0.01,0.01 0.01,0.01 0.03,0.02 0.05,0.03 0.08,0.04 0.01,0 0.02,0 0.03,0 0.02,0 0.04,-0 0.05,-0 0.02,-0 0.04,-0.01 0.06,-0.03l0.01 0.02c-0.01,0.01 -0.02,0.01 -0.03,0.01 -0.01,0 -0.02,0.01 -0.03,0.01 -0.02,0 -0.03,0.01 -0.05,0.01 -0.01,0 -0.01,0 -0.02,-0 -0.01,-0 -0.03,-0 -0.04,-0.01 -0.02,-0 -0.03,-0.01 -0.04,-0.02 -0.01,-0.01 -0.02,-0.01 -0.03,-0.02 -0.01,-0.01 -0.02,-0.01 -0.02,-0.02 -0.01,-0.01 -0.01,-0.02 -0.01,-0.02 -0.01,-0.01 -0.01,-0.02 -0.02,-0.03 -0,-0 -0,-0.01 -0.01,-0.03 -0.01,-0.02 -0.01,-0.04 -0.01,-0.06 0,-0.01 0,-0.01 0,-0.02 0,-0.02 0.01,-0.04 0.02,-0.06 0,-0.01 0.01,-0.02 0.02,-0.04 0,-0 0.01,-0.01 0.02,-0.02 0.01,-0.01 0.01,-0.01 0.02,-0.02 0.01,-0.01 0.02,-0.01 0.03,-0.02 0.01,-0 0.02,-0.01 0.02,-0.01 0.01,-0 0.02,-0.01 0.03,-0.01 0.02,-0 0.03,-0 0.06,-0 0,0 0.01,0 0.02,0 0.01,0 0.01,0 0.02,0 0.02,0.01 0.03,0.01 0.04,0.02 0,0 0.01,0.01 0.02,0.01 0.01,0 0.01,0.01 0.02,0.01 0.01,0.01 0.02,0.02 0.03,0.03 0.01,0.01 0.02,0.03 0.03,0.05 0,0.01 0.01,0.02 0.01,0.02 0,0.02 0.01,0.03 0.01,0.05 0,0 0,0 0,0 0,0 -0,0 -0,0 0,0 -0,0 -0,0l-0.02 -0z"/>
  <path class="fil9" d="M1.6 1.04c-0.01,0 -0.01,0.01 -0.01,0.01 -0.01,0.01 -0.02,0.02 -0.03,0.03 -0,0 -0,0 -0,0 -0,-0 -0,-0 -0.01,-0 -0,-0 -0.01,-0.01 -0.01,-0.01 -0.01,-0.01 -0.02,-0.01 -0.02,-0.02 -0,-0 -0,-0 -0,-0 0,-0 0,-0 0,-0 0.01,-0.01 0.02,-0.01 0.02,-0.02 0.01,-0.01 0.01,-0.01 0.02,-0.02 0,-0 0,-0 0,-0 0,0 0,0 0,0 0.01,0.01 0.02,0.02 0.03,0.03 0,0 0.01,0.01 0.01,0.01 0,0 0,0 0,0 0,0 -0,0 -0,0l0 0z"/>
  <path class="fil6" d="M0.56 1.2l-0.03 0c0,-0.01 -0,-0.02 -0,-0.04 -0,-0.01 -0,-0.02 -0.01,-0.03 -0,-0.01 -0.01,-0.01 -0.01,-0.03 -0.01,-0.01 -0.01,-0.02 -0.02,-0.02 -0.01,-0.01 -0.01,-0.01 -0.02,-0.02 -0.02,-0.01 -0.04,-0.03 -0.06,-0.03 -0.01,-0 -0.02,-0 -0.02,-0 -0.02,-0 -0.03,0 -0.05,0 -0.01,0 -0.01,0 -0.02,0.01 -0.01,0.01 -0.02,0.01 -0.03,0.02 -0.01,0.01 -0.02,0.02 -0.03,0.02 -0.01,0.01 -0.02,0.02 -0.02,0.03 -0.01,0.01 -0.01,0.03 -0.02,0.04 -0,0 -0,0.01 -0,0.01 -0,0.01 -0,0.01 -0,0.02 -0,0.02 0,0.03 0,0.04 0,0 0,0.01 0,0.02 0,0.01 0.01,0.02 0.01,0.03 0,0.01 0.01,0.02 0.02,0.02 0.01,0.01 0.02,0.02 0.03,0.03 0.01,0.01 0.02,0.02 0.03,0.02 0.01,0.01 0.03,0.01 0.05,0.01 0.01,0 0.02,0 0.03,0 0.02,-0 0.04,-0.01 0.05,-0.01 0.01,-0 0.02,-0.01 0.03,-0.01 0,0.01 0,0.01 0,0.02 -0.02,0.01 -0.04,0.02 -0.06,0.03 -0.01,0 -0.03,0 -0.05,0 -0,-0 -0.01,-0 -0.03,-0 -0.03,-0 -0.05,-0.02 -0.08,-0.04 -0,-0 -0.01,-0.01 -0.01,-0.01 -0,-0 -0.01,-0.01 -0.01,-0.01 -0,-0 -0,-0 -0,-0 -0,-0 -0,-0 -0,-0 -0,-0.01 -0.01,-0.01 -0.01,-0.01 -0,-0.01 -0.01,-0.01 -0.02,-0.02 -0,-0 -0,-0.01 -0.01,-0.01 -0,-0.01 -0.01,-0.02 -0.01,-0.02 -0,-0.01 -0,-0.03 -0.01,-0.04 -0,-0.01 -0,-0.02 -0,-0.02 0,-0.02 0,-0.03 0.01,-0.04 0,-0.01 0.01,-0.02 0.01,-0.03 0,-0 0,-0.01 0.01,-0.02 0,-0 0.01,-0.01 0.01,-0.01 0.01,-0.01 0.01,-0.01 0.01,-0.01 0.02,-0.02 0.05,-0.04 0.07,-0.04 0.01,-0 0.02,-0.01 0.03,-0.01 0,-0 0.01,-0 0.01,-0 0.02,-0 0.04,0 0.06,0.01 0.04,0.01 0.07,0.03 0.09,0.06 0.01,0.01 0.01,0.01 0.02,0.02 0.01,0.01 0.01,0.02 0.02,0.03 0,0 0,0.01 0.01,0.02 0,0 0,0.01 0,0.02 0,0.01 0,0.02 0.01,0.03 0,0 0,0.01 0,0.01z"/>
  <ellipse class="fil3" transform="matrix(-0.00181122 -0.0158971 0.0158969 -0.00181124 1.65384 1.02385)" rx="0.37" ry="0.02"/>
  <path class="fil3" d="M0.54 1.2l-0.02 0c-0,-0 -0,-0 0,-0.01 0,-0 0,-0 0,-0 -0,-0.01 -0,-0.03 -0.01,-0.04 -0,-0.01 -0,-0.01 -0.01,-0.02 -0.01,-0.01 -0.01,-0.02 -0.02,-0.03 -0.01,-0.01 -0.02,-0.02 -0.02,-0.02 -0.01,-0.01 -0.02,-0.01 -0.02,-0.02 -0.01,-0.01 -0.03,-0.01 -0.04,-0.02 -0.02,-0 -0.04,-0 -0.07,0 -0,0 -0.01,0 -0.01,0 -0.01,0 -0.01,0.01 -0.02,0.01 -0,0 -0.01,0.01 -0.02,0.01 -0,0 -0.01,0 -0.01,0 -0,0 -0.01,0 -0.01,0.01 -0.01,0.01 -0.02,0.03 -0.02,0.04 -0,0 -0,0 -0,0 -0.01,0.01 -0.01,0.02 -0.01,0.03 -0,0.01 -0,0.01 -0,0.02 -0,0 -0,0.01 -0,0.01 0,0.01 0,0.02 0,0.03 0,0.01 0,0.01 0.01,0.02 0.01,0.01 0.01,0.02 0.01,0.02 0.01,0.01 0.02,0.02 0.03,0.04 0.01,0.01 0.02,0.02 0.04,0.03 0.01,0 0.01,0.01 0.02,0.01 0.01,0 0.01,0 0.02,0 0.01,0 0.03,0 0.04,0 0.01,-0 0.02,-0 0.03,-0 0.02,-0.01 0.04,-0.01 0.05,-0.02 0,-0 0,-0 0,-0l0 0 0 0.02c-0.01,0.01 -0.02,0.01 -0.03,0.01 -0.02,0.01 -0.04,0.01 -0.05,0.01 -0.01,0 -0.02,0 -0.03,-0 -0.01,-0 -0.03,-0 -0.05,-0.01 -0.01,-0 -0.02,-0.01 -0.03,-0.02 -0.01,-0.01 -0.02,-0.02 -0.03,-0.03 -0.01,-0.01 -0.01,-0.02 -0.02,-0.02 -0.01,-0.01 -0.01,-0.02 -0.01,-0.03 -0,-0.01 -0,-0.01 -0,-0.02 -0,-0.01 -0,-0.03 -0,-0.04 0,-0 0,-0.01 0,-0.02 0,-0.01 0,-0.01 0,-0.01 0,-0.01 0.01,-0.03 0.02,-0.04 0.01,-0.01 0.01,-0.02 0.02,-0.03 0.01,-0.01 0.02,-0.02 0.03,-0.02 0.01,-0.01 0.02,-0.01 0.03,-0.02 0.01,-0 0.01,-0 0.02,-0.01 0.02,-0 0.03,-0 0.05,-0 0.01,0 0.02,0 0.02,0 0.02,0.01 0.04,0.02 0.06,0.03 0,0 0.01,0.01 0.02,0.02 0.01,0.01 0.01,0.01 0.02,0.02 0.01,0.01 0.01,0.02 0.01,0.03 0.01,0.01 0.01,0.02 0.01,0.03 0,0.01 0,0.02 0,0.04z"/>
  <path class="fil1" d="M1.43 1.04c0,0.01 0.01,0.01 0.01,0.02 0.01,0.02 0.02,0.03 0.03,0.04 0,0 0.01,0.01 0.01,0.01 0,0 0,0 0,0 0,0 0,0 -0,0 -0,0 -0,0 -0,0 -0,0 -0,0 -0,-0 -0.02,-0.01 -0.03,-0.02 -0.04,-0.04 -0,-0.01 -0.01,-0.02 -0.01,-0.03 0,-0 0,-0 0,-0 0,0 0,0 0,0l0 0z"/>
  <path class="fil7" d="M0.52 1.21c-0.01,0 -0.01,0.01 -0.02,0.01 -0.01,0.01 -0.02,0.01 -0.03,0.02 -0.01,0.01 -0.01,0.01 -0.01,0.02 0,0.01 0,0.01 0,0.03 0,0 0,0 0,0l0 0.03 -0 -0c-0,-0 -0,0 -0,0 -0.02,0.01 -0.04,0.02 -0.05,0.02 -0.01,0 -0.02,0 -0.03,0 -0.01,0 -0.03,-0 -0.04,-0 -0,-0 -0.01,-0 -0.02,-0 -0.01,-0 -0.01,-0.01 -0.02,-0.01 -0.01,-0.01 -0.03,-0.02 -0.04,-0.03 -0.01,-0.01 -0.02,-0.02 -0.03,-0.04 -0,-0 -0,-0.01 -0.01,-0.02 -0,-0.01 -0,-0.01 -0.01,-0.02 -0,-0.01 -0,-0.02 -0,-0.03 -0,-0 0,-0.01 0,-0.01 0,-0.01 0,-0.01 0,-0.02 0,-0.01 0.01,-0.02 0.01,-0.03 0,-0 0,-0 0,-0 0,-0.02 0.01,-0.03 0.02,-0.04 0.01,-0 0.01,-0.01 0.01,-0.01 0,-0 0.01,-0 0.01,-0 0.01,-0.01 0.02,-0.01 0.02,-0.01 0.01,-0 0.01,-0.01 0.02,-0.01 0,-0 0,-0 0.01,-0 0.02,-0 0.04,-0.01 0.07,-0 0.01,0 0.03,0.01 0.04,0.02 0.01,0 0.02,0.01 0.02,0.02 0.01,0.01 0.02,0.02 0.02,0.02 0.01,0.01 0.01,0.02 0.02,0.03 0,0.01 0.01,0.01 0.01,0.02 0,0.01 0,0.03 0.01,0.04 0,0 -0,0 -0,0 -0,0 -0,0.01 -0,0.01zm-0.22 0.06c0,0 0.01,0.01 0.01,0.01 0.03,-0 0.07,-0 0.1,-0 0.01,0 0.02,0 0.02,-0 0,-0 0,-0.01 0,-0.01 0,-0 -0,-0.01 -0,-0.02 -0,-0.02 0,-0.04 -0,-0.05 -0,-0.01 -0,-0.02 0,-0.04 0,-0 0,-0.01 0,-0.02 0,-0 -0,-0.01 -0,-0.01 -0.02,-0 -0.04,0 -0.06,0 -0.02,0 -0.04,-0 -0.07,-0 -0,0 -0.01,0 -0.01,0 -0,0 -0,0 -0,0.01 0,0.01 0,0.02 0,0.04 -0,0.01 0,0.03 0,0.04 -0,0.02 -0,0.04 0,0.05 0,0 0,0 0,0l0 0z"/>
  <path class="fil8" d="M1.16 1.07c0.01,0.01 0.02,0.01 0.03,0.02 0.01,0 0.01,0.01 0.02,0.01 0,0 0.01,0.01 0,0.01 -0,0.02 -0.01,0.05 -0.01,0.07l-0 0.01c0,0 0,0 0,0 -0,0 -0,0 -0,0 0,0 0,0 0,0 -0,-0 -0.01,-0 -0.01,-0 -0.02,-0 -0.03,-0 -0.05,-0 -0.01,0 -0.02,0 -0.02,0.01 -0,0 -0,0 -0,0 -0,0 -0,-0 -0,-0 0,-0 0,-0 0,-0 0,-0 0,-0 0,-0 0,-0 0.01,-0.02 0.02,-0.04 0.01,-0.02 0.02,-0.04 0.03,-0.06 0,-0 0,-0 -0,-0.01 -0.01,-0.01 -0.01,-0.01 -0.02,-0.02 0.01,-0 0.02,-0 0.02,-0z"/>
  <path class="fil4" d="M0.3 1.26c-0,-0.01 -0,-0.03 -0,-0.05 0,-0.01 -0,-0.03 -0,-0.04 0,-0.01 0,-0.02 -0,-0.04 -0,-0 0,-0 0,-0.01 0,-0 0.01,-0 0.01,-0 0.02,0 0.04,0 0.07,0 0.02,-0 0.04,-0 0.06,-0 0,0 0,0 0,0.01 0,0.01 0,0.01 0,0.02 -0,0.02 -0,0.03 -0,0.04 0,0.01 -0,0.03 0,0.05 0,0.01 0,0.01 0,0.02 0,0 -0,0.01 -0,0.01 -0,0.01 -0.02,0 -0.02,0 -0.04,0 -0.07,0 -0.1,0 -0.01,0 -0.01,-0 -0.01,-0.01 -0,-0 -0,-0 -0,-0l0 0zm0.02 -0.12c-0,0 -0,0 -0,0 -0,0.01 -0,0.01 -0,0.02 0,0.01 0,0.02 -0,0.03 -0,0.02 0,0.03 0,0.05 0,0 0,0 0,0 0,0 0,0 0,0 0,0 0,0 0,0 0.01,-0 0.02,-0 0.04,-0 0.02,0 0.04,-0 0.06,-0 0,-0 0,-0 0,-0 0,-0.03 0,-0.06 0,-0.09 -0,-0 0,-0 0,-0.01 0,0 0,-0 0,-0 0,-0 -0,-0 -0,-0 -0.01,-0 -0.01,-0 -0.02,-0 -0.02,0 -0.05,0 -0.08,0z"/>
  <path class="fil9" d="M0.33 1.15c0.04,-0 0.06,-0 0.08,-0 0.01,-0 0.01,0 0.02,0 0,0 0,0 0,0 0,0 0,0 0,0 -0,0 -0,0 -0,0.01 0,0.03 0,0.06 0,0.09 0,0 -0,0 -0,0 -0.02,0 -0.04,0 -0.06,0 -0.02,-0 -0.03,-0 -0.04,0 0,0 -0,0 -0,0 -0,0 -0,-0 -0,-0 0,0 0,0 0,-0 0,-0.02 -0,-0.03 0,-0.05 0,-0.01 0,-0.02 0,-0.03 -0,-0 0,-0.01 0,-0.02 0,-0 0,-0 0,-0l0 0z"/>
  <path class="fil4" d="M1.43 1.21c0,0 0,0.01 0,0.01 0.01,0.01 0.01,0.03 -0,0.04 -0,0 -0.01,0.01 -0.02,0.01 -0.01,0 -0.02,0 -0.03,0 0,0 0,0 0,0 -0,0 -0,-0 -0,-0l-0 -0.01c0,-0.01 0,-0.01 0,-0.01 -0,-0 -0,-0.01 -0,-0.01 -0,-0 -0,-0.01 -0,-0.01 -0,-0 -0,-0.01 -0.01,-0.01 -0.01,-0.01 -0.01,-0.01 -0.02,-0.02 -0,-0 -0.01,-0.01 -0.01,-0.01 -0.01,-0 -0.01,-0.01 -0.02,-0.01 -0,-0 -0,-0 -0,-0 -0,-0 -0,-0 -0,-0l-0 -0.01c0.01,-0 0.02,-0 0.03,-0 0.02,0 0.04,0.01 0.06,0.02 0.01,0.01 0.02,0.01 0.02,0.02 0,0 0,0 0,0.01z"/>
  <path class="fil7" d="M1.31 1.16l0 0.01c0,0 0,0 0,0 0,0 0,0 0,0 0,0 0.01,0 0.02,0.01 0.01,0 0.01,0 0.01,0.01 0.01,0.01 0.02,0.01 0.02,0.02 0,0 0.01,0.01 0.01,0.01 0,0.01 0,0.01 0,0.01 0,0.01 0,0.01 0,0.01 0,0 0,0.01 -0,0.01l-0.01 0.03c-0.02,0 -0.05,0.01 -0.08,0 -0.01,-0 -0.02,-0 -0.03,-0 -0.01,-0 -0.02,-0 -0.04,-0.01 -0.01,-0.02 -0.02,-0.04 -0.03,-0.05l0.01 -0.01 0 -0c0,-0 0,-0 0,-0l0 -0.01c0.01,-0.01 0.02,-0.03 0.04,-0.03 0,-0 0.01,-0 0.01,-0.01 0,-0 0.01,-0 0.01,-0 0,-0 0.01,-0 0.01,-0 0,-0 0.01,-0 0.01,-0 0.01,-0 0.01,-0 0.02,-0zm-0.05 0.04c-0.01,0.01 -0.02,0.01 -0.01,0.03 0,0 0,0.01 0.01,0.01 0.01,0 0.01,0 0.02,0 0.01,-0 0.02,-0.01 0.03,-0.02 0,-0 0,-0.01 0,-0.01 0,-0.01 -0,-0.01 -0.01,-0.02 -0.01,-0 -0.03,0 -0.04,0.01z"/>
  <path class="fil5" d="M0.89 1.28c-0,-0 -0,-0.01 -0.01,-0.01l0 -0.01c0,-0 0,-0 0,-0 0,-0 -0,-0 -0,-0 -0,0 -0,0 -0,0 -0.01,0.01 -0.01,0.02 -0.02,0.02 -0.01,0.01 -0.02,0.01 -0.04,0.02 -0,0 -0.01,0 -0.01,0 -0,0 -0.01,0 -0.01,0 -0,0 -0.02,0 -0.04,0.01 -0.01,0 -0.02,0 -0.04,0 -0.01,0 -0.03,0 -0.04,0 -0,0 -0.01,-0 -0.02,-0 -0,-0 -0,-0 -0,-0 0,-0 0,-0 0,-0 0,-0.01 0,-0.02 0.01,-0.02 0,-0 0.01,-0 0.01,-0 0.01,0 0.02,0 0.04,0 0,0 0,0 0,0 0,-0 0,-0 0,-0 0,0 0,-0 0,-0 -0,-0 -0,-0 -0,-0 -0,-0.01 -0,-0.01 -0,-0.02 -0,-0 -0,-0 -0,-0 -0,0 -0,0 -0,0l-0.01 0c-0,0 -0,-0 -0,-0 -0.01,-0 -0.01,-0.01 -0.02,-0 -0.01,0 -0.01,0 -0.02,-0 -0.01,-0 -0.01,-0 -0.02,-0 -0,0 -0.01,-0 -0.01,-0 -0,-0 -0,-0 -0,-0 -0,-0 -0.01,-0 -0.02,-0 -0.01,-0 -0.02,0 -0.02,0.01 -0,0 -0.01,0.01 -0.01,0.01 -0,0 -0,0 -0,0l-0.01 -0c-0,-0 -0,-0 -0,-0 -0,-0.01 0,-0.01 0.01,-0.02 0,-0 0.01,-0.01 0.01,-0.01 0,-0 0,-0 0,-0 0,-0 -0,-0 -0,-0 -0,-0.01 -0.02,-0 -0.03,-0 -0.01,0 -0.01,0 -0.02,0.01 -0.01,0.01 -0.01,0.01 -0.01,0.02 0,0 0,0 0,0 0,0 -0,0 -0,0l-0.02 0.01c-0,0 -0,0 -0,0 -0,-0 -0.01,-0.01 -0.01,-0.01 -0,-0 -0,-0 -0,-0.01 -0,-0 -0,-0 -0,-0 -0,0 -0,0 -0.01,0 -0,0 -0,0.01 -0,0.01 0,0 0,0.01 0.01,0.01 0,0.01 0.01,0.01 0.02,0.02 0,0 0.01,0 0.01,0.01 0.02,0.01 0.04,0.01 0.06,0.02 0.01,0 0.01,0 0.02,0 0.01,0 0.02,0 0.02,0 0.01,0 0.01,0 0.02,0 0,0 0.01,0 0.01,0 0.01,0 0.02,0 0.02,0 0,0 0.01,0 0.01,-0 0,-0 0.01,-0 0.01,-0 0,0 0.01,-0 0.01,-0 0.01,-0 0.02,-0 0.04,-0 0.01,-0 0.01,-0 0.01,-0 0.02,-0 0.03,-0.01 0.05,-0.01 0.01,-0 0.02,-0.01 0.03,-0.01 0.01,-0.01 0.02,-0.01 0.03,-0.02 0,0.01 -0,0.02 -0,0.03 -0,0.01 -0,0.02 -0.01,0.02 -0,0 -0,0 -0,0 -0,0 -0,-0 -0,-0l-0.01 -0.01c-0,-0 -0,-0 -0,-0 -0,0 -0,0 -0,0 -0,0 0,0.01 0,0.01 0,0 0,0 0,0 0,0 -0,0 -0,0 -0,0 -0.01,0 -0.01,-0 -0.01,-0 -0.01,-0 -0.02,-0 -0,0 -0.01,-0 -0.01,-0 0,-0 0.01,0 0.01,0 0,0 0,-0 0,-0 0,-0 0,-0.01 0,-0.01 0,-0 -0,-0 -0,-0 -0,0 -0,0 -0,0l-0.01 0c-0,0 -0,0 -0,0 -0,0 -0,-0 -0,-0 -0,-0 -0,-0 -0,-0 -0.02,0 -0.03,0.01 -0.05,0.01 -0,0 -0,0 -0,0 -0,0 -0,0 -0,0 0,0 0,0 0,0 0.01,0 0.02,0.01 0.02,0.01 0.01,0.01 0.01,0.01 0.02,0.01 -0,0 -0.01,0.01 -0,0.01 0,0 0,0 0,0 0.01,0 0.02,-0 0.03,-0 0.01,-0 0.01,-0.01 0.02,-0.01 0,-0 0,-0 0.01,0 -0,-0 -0,-0 -0.01,0 -0.01,0.01 -0.01,0.01 -0.03,0.01 -0.01,0 -0.02,0 -0.02,0 -0,0 -0,0 -0,0 -0,0 -0,0 -0,0l-0 0c-0,0 -0,0 -0,0 0,0 0,0 0,0l0.01 0 -0.01 -0c-0,0 -0,0 -0,0 -0,0 -0,0 -0,0l-0 0.01c0,0 0,0 0,0 -0,0 0,0 0,0 0,0 0,0 0,0 0.01,0 0.02,0 0.03,0.01 0,0 0,0 0,0 0,0 -0,0 -0,0 -0.01,0 -0.02,0.01 -0.03,0.01l0 -0c0,-0 0,-0 0,-0l-0 -0c-0,-0 -0,-0 -0,-0 -0,0 -0,0 -0,0 -0.01,0 -0.01,0.01 -0.02,0.01 -0,0 -0,0 -0,0 0,0 0,0 0,0 0,0 0,0 0,0l0 -0c-0,0.01 -0.01,0.02 -0.02,0.02 -0.02,0 -0.03,0.01 -0.05,0.01 -0.03,0 -0.06,0 -0.08,-0 -0.02,-0 -0.04,-0.01 -0.06,-0.01 -0,-0 -0.01,-0 -0.02,-0.01 -0.01,-0 -0.01,-0.01 -0.02,-0.01 -0.01,-0 -0.02,-0.01 -0.02,-0.02 -0.01,-0.01 -0.01,-0.01 -0.02,-0.02 -0,-0.01 -0.01,-0.01 -0.01,-0.02 -0,-0 -0,-0.01 -0.01,-0.02 -0,-0.01 -0,-0.02 -0,-0.03 0,-0.01 -0,-0.02 0,-0.03 0,-0 0,-0 0,-0 0,-0 -0,-0 -0,-0 -0,-0.01 -0.01,-0.02 -0.01,-0.03 -0,-0.01 0,-0.01 0.01,-0.02 0,-0 0,-0.01 0.01,-0.01 0.01,-0.01 0.03,-0.02 0.04,-0.02 0,-0 0,-0 0.01,-0 0,-0 0.01,-0 0.01,-0 0.01,-0 0.02,-0 0.04,0 0,0 0,-0 0,-0 0,-0.01 0.01,-0.01 0.02,-0.02 0,-0 0.01,-0 0.01,-0 0,-0 0,-0 0,-0 0,0 0,0 0,-0 0,-0 0,-0 0,-0 0,0 0,0 0.01,0 0,0 0,-0 0.01,-0 0,-0 0,-0 0,-0 0,-0.01 0.01,-0.01 0.01,-0.02 0,-0 0.01,-0 0.01,-0 0,-0 0,-0 0,-0 0,-0 0,-0.01 0,-0.01 0,-0 0.01,-0 0.01,-0 0.01,0 0.01,0.01 0.01,0.01 0,0 0,0 0,0 0,0 0.01,0 0.01,0 0.01,0 0.02,0.01 0.03,0.02 0,0 0,0 0,0 0,0 0,0 0,0 0.01,-0 0.02,-0 0.03,0.01 0.01,0 0.01,0.01 0.01,0.01 0,0 0,0 0,0 0,0 0,0 0,0 0,0 0,-0 0,-0 0,-0 0.01,-0 0.01,-0 0,-0 0.01,-0 0.02,-0 0.01,0 0.02,0 0.02,0 0.01,0 0.01,0 0.02,0.01 0.01,0 0.01,0 0.01,0.01 0.01,0.01 0.01,0.01 0.02,0.02 0,0 0,0 0,0 0,0.01 0,0.02 -0,0.03zm-0.12 -0.06c-0,-0 -0.01,0 -0.01,0 -0.01,0.01 -0.01,0.01 -0.02,0.01 -0,0 -0,0 -0,0 0,0 0,0 0,0 0.01,0 0.02,0 0.02,0 0.01,-0 0.01,-0 0.01,-0.01 0,-0 0,-0 0,-0 0,-0 0,-0 0,-0 0,-0 -0,-0 -0,-0l-0.01 -0c-0,-0 -0,-0 -0,-0l0 0zm0.03 0.01c0,0 0,0 0,0 0.01,0.01 0.01,0.01 0.01,0.01 0.01,0 0.01,0.01 0.01,0.02 0,0 -0,0 -0,0l-0 0c-0,0 -0,0 -0,0 -0,0 -0,0 0,0 0,0 0,0 0,0 0,0 0.01,0 0.01,0 0.01,-0 0.01,-0.01 0.02,-0.01 0,-0 0,-0.01 0,-0.01 0,-0 -0,-0 -0,-0 -0.01,-0.01 -0.02,-0.02 -0.03,-0.02 -0,-0 -0,-0 -0,-0l-0.02 0c-0,0 -0,0 -0,0 -0,0 -0,0 -0,0 0,0 0,0 0,0l0 0zm-0.07 0c-0,-0 -0.01,-0.01 -0.01,-0.01 -0.01,0 -0.03,0 -0.04,0 -0.01,-0 -0.01,-0 -0.02,-0 -0,0 -0,0 -0,0 -0,0.01 -0.01,0.01 -0.01,0.01 -0,0 -0,0 -0,0 0,0 0,0 0,0 0,0 0.01,0 0.01,0 0.02,0 0.03,0 0.05,-0 0.01,-0 0.02,-0 0.02,-0.01 0,-0 0,-0 0,-0 0,-0 -0,-0 -0,-0l0 0zm0 0.02c-0,0 -0.01,0 -0.01,0 -0,0 -0.01,0 -0.01,0.01 0,0 0,0 0,0 0,0 0.01,0.01 0.01,0.02 0,0 0,0 0.01,0 0,0 0.01,0 0.01,0 0,0 0,-0 0,-0 0.01,-0 0.01,-0 0.01,-0 0,0 0,0 0,-0 0,-0 0,-0 0,-0 0,-0 -0,-0 -0,-0 -0,-0 -0,-0 -0.01,-0.01 -0.01,-0.01 -0.01,-0.01 -0.01,-0.02 -0,-0 -0.01,-0 -0.01,-0 -0,0 -0,0 -0,0l0 0zm-0.2 0.07c0,-0 0,-0 0,-0 0,-0 -0,-0 -0,-0 -0.01,-0 -0.02,-0.01 -0.03,-0.01 -0,-0 -0,-0 -0,-0 -0,-0 -0,0 -0,0 0,0 0,0 0,0 0,0.01 0.01,0.02 0.02,0.02 0,-0 0.01,-0 0.01,-0zm0.05 0.02c-0.01,0 -0.01,0.01 -0.02,0.01 -0,0 -0,0 -0.01,0 -0,0 -0.01,0 -0.01,0.01 -0,0 -0,0 -0,0 0,0 0,0 0,0 0.01,0 0.01,0 0.02,0 0.01,-0 0.01,-0.01 0.02,-0.01 0.01,-0.01 0.01,-0.01 0.02,-0.01 0,-0 0,-0 0,-0 0,-0 0,-0 0,-0 0,-0 -0,-0 -0,-0 -0,0 -0,-0 -0,-0 -0.01,0 -0.01,-0 -0.02,-0 -0.01,-0 -0.01,-0.01 -0.02,-0.01 -0,-0 -0,0 -0,0 -0,0 -0,0 -0,0 0,0 -0,0 -0,0 -0,0 -0.01,0 -0.01,0 -0,-0 -0.01,-0 -0.01,-0.01 -0,-0 -0,-0 -0,-0 -0,-0 -0,-0 -0,0 -0,0 -0,0 -0,0l-0 0c-0,0 -0,0 0,0 0,0 0.01,0.01 0.01,0.01 0,0 0.01,0 0.01,0 0.01,-0 0.02,-0 0.02,0 0,0 0,0 0,0 0,0 -0,0 -0,0l0 0zm-0.05 -0.01c-0,0 -0,0.01 -0.01,0.01 -0,0 -0,0 0,0 0,0 0.01,0 0.01,0 0,-0 0,-0 0,-0 0,-0 -0,-0 -0,-0l-0.01 -0c-0,-0 -0,-0 -0,-0l0 -0.01c0,0 0,-0 0,-0 0,-0 -0,-0 -0,-0 -0,0 -0,0 -0,0l0 0zm0.17 0.01c0,0.01 0.01,0.01 0.01,0.01 0,0 0.01,0 0.01,0 0,-0 0.01,-0 0.01,-0 0.01,0 0.02,0.01 0.02,0.01 0,0 0,0.01 0,0.01 0,0 -0,0.01 -0,0.01 -0,0.01 -0.01,0.02 -0.02,0.03 -0,0 -0.01,0 -0.02,0 -0.01,0 -0.02,0 -0.02,0 -0,0 -0.01,-0 -0.01,-0 -0,-0 -0,-0 -0,-0 0,-0 0,-0 0,-0 0,-0.01 0.01,-0.01 0.02,-0.02 0,-0 0,-0 0,-0 0,0 0,0 0,0 0,0 0,0 0,0l0 0.01c0,0 0,0 0,0 0,0 0,0 0,0 0,0 0,-0 0,-0l0 -0c0,-0 0,-0 0,-0l0 -0.01c0,-0 0,-0 0,-0 0,-0 0,-0 0,-0 0,0 0,0 0,0l0 0.01c0,0 0,0 0,0 0,0 0,-0 0,-0l0 -0c0,-0 0,-0 0,-0 0.01,-0.01 0.01,-0.01 0.01,-0.01 0,-0 0,-0 0,-0 0,-0 -0,-0 -0,-0 -0,-0 -0,-0 -0,-0 -0,-0 -0,-0 -0,-0 -0.01,0 -0.02,0 -0.03,0 -0,0 -0.01,0 -0.01,0 -0.01,-0 -0.01,-0 -0.02,-0 -0.01,0 -0.02,0.01 -0.03,0 -0,-0 -0.01,-0 -0.01,-0 -0.01,-0 -0.01,-0 -0.02,-0 -0,0 -0,0 -0,0 -0,0 -0,0 0,0 0,0.01 0.01,0.01 0.02,0.01 0,0 0.01,0 0.01,0 0,0 0,0 0,0 0,0 0,0 -0,0 -0,0 -0,0 -0,0l-0.01 0c0,0 0,0 0,0 -0,0 -0,0 -0,0 0,0 0,0 0,0 0.01,0 0.01,0 0.02,-0 0,-0 0,-0 0.01,-0 0,0 0.01,0.01 0.01,0.01 0,0 0,0 0,0 0,0 -0,0 -0,0 -0,0 -0.01,0.01 -0.01,0.01 -0.01,0 -0.02,0 -0.02,-0 -0.01,-0 -0.02,-0.01 -0.03,-0.02 -0,-0 -0,-0.01 -0,-0.02 0,-0.01 0.01,-0.02 0.02,-0.02 0.01,-0 0.01,-0 0.01,-0 0,-0 0.01,-0 0.01,0 0,0 0,0 0,0 0,0 0,0 -0,0 -0,0 -0,0 -0.01,0 -0,-0 -0,0 -0,0 -0.01,0 -0.02,0.01 -0.02,0.02 0,0 0,0 0,0 0,0 0,0 0,0 0,0 0,0 0,0l0.01 -0c0,-0 0,-0 0,-0 0,0 0,0 0,0 -0,-0 0,-0.01 0,-0.01 0.01,-0.01 0.01,-0.01 0.02,-0.02 0,-0 0.01,-0.01 0.01,-0.01 0,0 0,-0 0,-0 0,-0 0,-0 -0,-0 0,0 -0,0 -0,-0 0,0 -0,-0 -0,-0 -0,-0 -0,-0 -0,-0 -0.01,-0 -0.03,-0 -0.04,-0 -0.01,0 -0.03,0.01 -0.03,0.02 -0.01,0.01 -0.01,0.02 -0.01,0.03 -0,0.01 -0,0.01 0,0.02 0,0.01 0.02,0.02 0.03,0.02 0.01,0 0.03,0 0.05,0 0,0 0.01,-0 0.01,-0 0,-0 0.01,0 0.01,0 0.01,0 0.02,0 0.02,0 0.01,-0 0.02,-0 0.02,-0 0.01,-0 0.01,-0 0.02,-0.01 0.01,-0.01 0.01,-0.02 0.01,-0.03 0,-0.01 0,-0.01 0,-0.01 -0,-0.01 -0.01,-0.02 -0.02,-0.03 -0.01,-0.01 -0.01,-0.01 -0.02,-0.01 -0.01,-0 -0.02,-0 -0.03,0 -0,0 -0.01,0 -0.01,0 -0,0 -0.01,0 -0.01,0 -0,0 -0,0 -0,0 0,0 0,0 0,0l0 0zm-0.15 0.03l-0 0c-0,0 -0,0 -0,0l-0 0c-0,0 -0,0 -0,0 -0.01,-0 -0.01,-0 -0.02,-0.01 -0,-0 -0.01,-0.01 -0.01,-0.01 -0,-0 -0.01,-0 -0.01,-0 -0,-0 -0,-0 -0,-0 -0,0 -0,0 -0,0 0,0 0,0 0,0 0,0 0,0.01 0,0.01 0.01,0.01 0.02,0.01 0.03,0.01 0,-0 0.01,-0 0.01,0 0.01,0 0.02,0 0.02,-0.01 0,-0 0,-0 0,-0 0,-0 -0,-0 -0,-0 -0,0 -0,0 -0,0 -0,0 -0.01,0 -0.01,0 -0,0 -0,-0 -0,-0l-0 -0c-0,-0 -0,-0 -0,-0l0 -0z"/>
  <path class="fil6" d="M1.26 1.19c0.01,-0.01 0.02,-0.02 0.04,-0.01 0.01,0 0.01,0.01 0.01,0.02 -0,0 -0,0.01 -0,0.01 -0.01,0.01 -0.02,0.02 -0.03,0.02 -0.01,0 -0.01,0 -0.02,-0 -0,-0 -0.01,-0.01 -0.01,-0.01 -0,-0.01 0,-0.02 0.01,-0.03z"/>
  <path class="fil5" d="M1.57 1.25c-0,-0.01 -0.01,-0.01 -0.02,-0.01l0 -0c0,-0 0,-0 0,-0 -0,-0 -0,-0 -0,-0 -0,0 -0,0 -0,0 -0,0 -0,0 -0.01,0.01 -0.01,0.01 -0.02,0.02 -0.03,0.02 -0.01,0 -0.02,0.01 -0.02,0.01 -0.01,0 -0.02,0.01 -0.03,0.01 -0.02,0.01 -0.04,0.01 -0.07,0.02l0 -0.01c0.01,-0 0.01,-0 0.02,-0 0.02,-0 0.04,-0.01 0.05,-0.03 0,-0.01 0,-0.03 -0.01,-0.04 -0,-0 -0,-0 -0,-0l-0.01 -0c0,0 -0,0 -0,0 -0,0 -0,0 -0,0 0,0 0,0 0,0 0,0 0,0 0,0 0,0 0,0 0,0 0,0 0,0.01 0,0.02 0,0.01 -0,0.02 -0.01,0.02 -0.01,0.01 -0.02,0.01 -0.02,0.01 -0.01,0 -0.03,0.01 -0.04,0.01l0.01 -0.03 0 0.01c0,0 0,0 0,0 0,0 0,0 0,0 0.01,-0 0.02,-0 0.03,-0 0.01,-0 0.01,-0 0.02,-0.01 0.01,-0.01 0.01,-0.03 0,-0.04 -0,-0 -0,-0.01 -0,-0.01l0 0c0,0 0,0 0,0 0,0 0.01,-0 0.01,-0 0.01,-0 0.01,-0 0.01,-0 0.02,-0 0.04,-0.01 0.07,-0.01 0.01,-0 0.01,-0 0.02,0 0.01,0 0.02,0.01 0.02,0.02 0,0 0,0.01 0,0.01 0,0.01 0,0.01 0,0.02z"/>
  <path class="fil3" d="M1.22 1.2l-0 0.01c-0,0 -0,0 -0,0l-0 0c-0,0 -0.01,0 -0.01,0 -0,0 -0.01,0.01 -0.01,0.01 -0.01,0.01 -0.01,0.02 -0.01,0.03 0,0 0,0 0,0.01 0.01,0.01 0.02,0.02 0.03,0.02 0,0.01 -0,0.01 -0.01,0.01 -0.01,-0 -0.01,-0 -0.01,-0 -0.02,-0.01 -0.04,-0.01 -0.06,-0.02 -0.01,-0 -0.02,-0.01 -0.02,-0.02 0,-0.02 -0.01,-0.02 -0.02,-0.03 0.01,-0.01 0.01,-0.01 0.02,-0.02 0.01,-0 0.01,-0 0.02,-0 0.01,-0 0.02,-0 0.04,0 0.01,0 0.02,0 0.03,0.01 0,0 0.01,0 0.01,0 0,0 0,-0 0,-0l0 -0z"/>
  <path class="fil3" d="M1.05 1.27c-0.01,0 -0.02,0.01 -0.04,0.01 -0,0 -0.01,0 -0.01,0 -0.01,0 -0.02,0 -0.03,0 -0.02,0 -0.04,-0 -0.06,-0l-0.02 -0c-0,-0 -0,-0 -0,-0 0,0 0,-0 0,-0 0,-0.01 -0,-0.03 -0.01,-0.04 -0.01,-0.01 -0.01,-0.01 -0.01,-0.01 0,0 -0,-0 -0,-0 -0,-0 -0,-0 0,-0 0,0 0,-0 0,-0 0.01,-0 0.02,-0.01 0.04,-0.01 0.01,-0 0.02,-0 0.03,-0 0.01,0 0.02,-0 0.02,-0 0.01,-0 0.01,0 0.02,0 0.01,0 0.02,-0 0.03,0 0.02,0 0.04,0.01 0.05,0.01 0,0 0.01,0 0.01,0 0,0 0,0 0,0 -0,0.01 -0.01,0.02 -0.01,0.03 -0,0 -0,0.01 -0.01,0.01 -0,0 -0.01,0 -0.01,0.01z"/>
  <path class="fil8" d="M1.21 1.22l-0.01 0.01c-0,0 -0,0.01 -0,0.01 -0,0.01 0,0.02 0,0.02 0.01,0.01 0.02,0.01 0.03,0.02 0.02,0 0.03,0.01 0.04,0.01 0.01,0 0.02,0 0.03,0 0.03,0 0.05,-0 0.08,-0 0.01,-0 0.03,-0 0.04,-0.01 0.01,-0 0.02,-0.01 0.02,-0.01 0.01,-0.01 0.01,-0.01 0.01,-0.02 -0,-0.01 -0,-0.01 -0,-0.02 -0,-0 -0,-0 -0,-0 -0,-0 -0,-0 -0,-0 0,0 0,0 0,0 0,-0 0,-0 0,-0 0,0 0,0 0,0l0.01 0c0,0 0,0 0,0 0.01,0.01 0.01,0.03 0.01,0.04 -0.01,0.02 -0.02,0.03 -0.05,0.03 -0.01,0 -0.01,0 -0.02,0 -0.01,0 -0.01,0 -0.02,0 -0.02,0 -0.04,0 -0.06,0 -0.02,0 -0.04,-0 -0.06,-0 -0.01,-0 -0.02,-0 -0.04,-0.01 -0,-0 -0.01,-0 -0.01,-0 -0.01,-0 -0.02,-0.01 -0.03,-0.02 -0,-0 -0,-0 -0,-0.01 -0,-0.01 -0,-0.02 0.01,-0.03l0.01 -0.01c0,-0 0.01,-0 0.01,-0z"/>
  <path class="fil3" d="M0.76 1.22l0.01 0c0,0 0,0 0,0 0,0 -0,0 -0,0 -0,0 -0,0 -0,0 -0,0 -0.01,0 -0.01,0.01 -0.01,0 -0.02,0 -0.02,-0 -0,-0 -0,-0 -0,-0 0,-0 0,-0 0,-0 0.01,-0 0.02,-0 0.02,-0.01 0,-0 0,-0 0.01,-0 0,0 0,0 0,0l0 0z"/>
  <path class="fil7" d="M1.09 1.22c0.02,0.01 0.02,0.01 0.02,0.03 -0,-0 -0.01,-0 -0.01,-0 -0,0 -0,0 -0,0 -0,0 -0,0 -0,0 0,0 0,0 0,0 0,0 0.01,0.01 0.01,0.01 0.01,0.01 0.03,0.02 0.04,0.03 0.02,0.01 0.03,0.02 0.04,0.02 0.01,0 0.03,0 0.05,0.01 0,0 0,0 0,0 0,0 0,-0 0,-0 0,0 0,0 0,0l0 0c0,0 0,0 0,0 0,-0 -0,-0 -0,-0 -0,-0 -0.01,-0 -0.01,-0 0,0 0,-0 0.01,-0 0,0 0,0 0,0 -0,-0 -0.01,-0 -0.02,-0 -0.01,-0 -0.02,-0 -0.03,-0 -0.01,-0 -0.01,-0 -0.01,-0 -0,0 -0,0 -0,0 0,0 0,0 0,0 0,0 0,0 0,0 0.01,0 0.01,0 0.03,0 0,0 0,0 0.01,0 0.01,0 0.01,0 0.02,0 0.01,0 0.01,0 0.02,0 0.01,0 0.03,0 0.04,0 0.01,0 0.03,0 0.04,0 -0,0 -0.01,0 -0.01,0 -0.02,-0 -0.03,-0 -0.05,-0 -0,0 -0,0 -0,0 -0.01,0.01 -0.02,0.01 -0.02,0.02 -0,0 -0.01,0.01 -0.01,0.02 -0,0.01 -0.01,0.02 -0.01,0.02 -0,0.01 -0,0.02 -0,0.02 0,0.01 0,0.02 0,0.03 -0,-0 -0.01,-0 -0.01,-0 -0.02,-0.01 -0.03,-0.01 -0.05,-0.02 -0.01,-0.01 -0.02,-0.01 -0.02,-0.02 -0.01,-0.01 -0.01,-0.01 -0.01,-0.01 -0,-0.01 -0.01,-0.01 -0.01,-0.01 -0.01,-0.01 -0.01,-0.02 -0.01,-0.02 -0.01,-0.02 -0.01,-0.03 -0.01,-0.03 -0,-0.01 -0.01,-0.02 -0.01,-0.02 0,-0 0,-0 -0,-0l-0.01 -0.02c0,-0 0,-0 0,-0 -0,-0.01 -0,-0.02 -0,-0.03 -0,-0.01 0,-0.02 0.01,-0.03z"/>
  <path class="fil4" d="M1.2 1.22l-0.01 0.01c0,-0 0.01,-0.01 0.01,-0.01z"/>
  <path class="fil3" d="M1.21 1.23c0.01,0.02 0.02,0.03 0.03,0.05 -0.01,-0 -0.02,-0.01 -0.03,-0.02 -0,-0.01 -0.01,-0.01 -0,-0.02 0,-0 0,-0.01 0,-0.01z"/>
  <path class="fil3" d="M0.79 1.23c-0,-0 -0,-0 -0,-0 -0,-0 0,-0 0,-0 0,0 0,0 0,-0l0.02 -0c0,-0 0,-0 0,0 0.01,0 0.02,0.01 0.03,0.02 0,0 0,0 0,0 -0,0.01 -0,0.01 -0,0.01 -0,0.01 -0.01,0.01 -0.02,0.01 -0,0 -0.01,0 -0.01,-0 -0,0 -0,-0 -0,-0 -0,-0 -0,-0 -0,-0 0,0 0,-0 0,-0l0 -0c0,-0 0,-0 0,-0 0,-0.01 -0,-0.01 -0.01,-0.02 -0,-0 -0,-0 -0.01,-0.01 -0,-0 -0,-0 -0,-0z"/>
  <path class="fil3" d="M0.73 1.24c0,0 0,0 0,0 0,0 -0,0 -0,0 -0.01,0 -0.02,0.01 -0.02,0.01 -0.02,0 -0.03,0 -0.05,0 -0,-0 -0.01,-0 -0.01,-0 -0,-0 -0,-0 -0,-0 0,-0 0,-0 0,-0 0,-0 0.01,-0.01 0.01,-0.01 0,-0 0,-0 0,-0 0.01,0 0.01,0 0.02,0 0.01,0 0.03,0 0.04,-0 0.01,-0 0.01,0 0.01,0.01z"/>
  <path class="fil3" d="M0.88 1.27c-0,0.01 -0,0.01 -0.01,0.02 -0.01,0.01 -0.02,0.01 -0.03,0.02 -0.01,0 -0.02,0.01 -0.03,0.01 -0.02,0 -0.03,0.01 -0.05,0.01 -0,0 -0.01,0 -0.01,0 -0.02,0 -0.03,0 -0.04,0 -0.01,0 -0.01,0 -0.01,0 -0,-0 -0.01,0 -0.01,0 -0,0 -0.01,0 -0.01,0 -0.01,-0 -0.02,-0 -0.02,-0 -0,-0 -0.01,-0 -0.01,-0 -0.01,-0 -0.01,-0 -0.02,-0 -0.01,-0 -0.02,-0 -0.02,-0 -0.01,-0 -0.01,-0 -0.02,-0 -0.02,-0.01 -0.04,-0.01 -0.06,-0.02 -0.01,-0 -0.01,-0 -0.01,-0.01 -0.01,-0 -0.01,-0.01 -0.02,-0.02 -0,-0 -0.01,-0.01 -0.01,-0.01 -0,-0 0,-0.01 0,-0.01 0,-0 0,-0 0.01,-0 0,-0 0,0 0,0 0,0 0,0.01 0,0.01 0,0.01 0,0.01 0.01,0.01 0,0 0,0 0,-0l0.02 -0.01c0,-0 0,-0 0,-0 0,-0 -0,-0 -0,-0 -0,-0.01 -0,-0.02 0.01,-0.02 0,-0 0.01,-0 0.02,-0.01 0.01,-0 0.02,-0 0.03,0 0,0 0,0 0,0 0,0 -0,0 -0,0 -0.01,0 -0.01,0.01 -0.01,0.01 -0,0 -0.01,0.01 -0.01,0.02 0,0 0,0 0,0l0.01 0c0,0 0,-0 0,-0 0,-0 0,-0.01 0.01,-0.01 0.01,-0.01 0.01,-0.01 0.02,-0.01 0.01,0 0.02,0 0.02,0 0,0 0,0 0,0 0,0 0,0 0.01,0 0,-0 0.01,0 0.02,0 0.01,0 0.01,0 0.02,0 0.01,-0 0.01,0 0.02,0 0,0 0,0 0,0l0.01 -0c0,0 0,0 0,0 0,0 0,0 0,0 0,0.01 0,0.01 0,0.02 0,0 0,0 0,0 0,0 0,0 0,0 0,0 -0,0 -0,0 0,0 -0,0 -0,0 -0.01,0 -0.02,-0 -0.04,-0 -0,-0 -0,0 -0.01,0 -0.01,0 -0.01,0.01 -0.01,0.02 0,0 0,0 0,0 0,0 0,0 0,0 0.01,0 0.02,0 0.02,0 0.01,-0 0.03,0 0.04,-0 0.02,-0 0.03,-0 0.04,-0 0.02,-0 0.03,-0.01 0.04,-0.01 0.01,-0 0.01,-0 0.01,-0 0.01,-0 0.01,-0 0.01,-0 0.01,-0 0.03,-0.01 0.04,-0.02 0.01,-0 0.01,-0.01 0.02,-0.02 0,-0 0,-0 0,-0 0,0 0,0 0,0 0,0 0,0 0,0l-0 0.01zm-0.26 -0.01c-0.01,0.01 -0.01,0.01 -0.01,0.02 -0,0 0,0 0,0 0.01,0 0.02,0 0.03,0 0,0 0.01,0 0.01,0 0.01,-0 0.01,-0.01 0.01,-0.01 0,-0 0,-0 0,-0.01 0,-0 0,-0.01 0,-0.01 0,-0 0,-0 0,-0 0,-0 -0,-0 -0,-0 -0.01,-0 -0.01,0 -0.02,-0 -0,-0 -0,-0 -0.01,-0 -0,0 -0.01,0 -0.01,0 -0,0 -0.01,0 -0.01,-0 -0,-0 -0,-0 -0,-0 -0,0 -0,0 -0,0l0 0z"/>
  <path class="fil4" d="M1.57 1.25c-0,0.02 -0.01,0.04 -0.01,0.05 -0,0 -0,0.01 -0.01,0.01 -0.01,0.01 -0.01,0.02 -0.02,0.03 -0.01,0.01 -0.01,0.02 -0.01,0.03 -0.01,0.02 -0.02,0.03 -0.04,0.05 -0.01,0.01 -0.02,0.01 -0.03,0.02 -0.01,0 -0.02,0.01 -0.03,0.01 -0,-0.02 -0.01,-0.03 -0.02,-0.05 -0,-0 -0,-0 -0,-0 0.01,-0.02 0.01,-0.03 0.01,-0.04 0,-0 0,-0.01 0,-0.01 0,-0 -0,-0 -0,-0 0,0 -0,0 -0,0 -0.02,0 -0.04,0 -0.06,-0 -0,-0 -0,-0 -0.01,-0 -0,-0 -0,-0 -0,-0 0,-0 0,-0 0,-0l0.01 -0.01c0.02,-0 0.03,-0 0.05,-0 0.01,-0 0.01,-0 0.02,-0 0.01,-0 0.02,-0.01 0.03,-0.01 0,-0 0.01,-0 0.03,-0.01 0,-0 0,-0 0,-0 0,-0 0,-0 0,-0 0,-0 0,-0 0,-0 0.02,-0.01 0.03,-0.02 0.05,-0.03 0.01,-0.01 0.01,-0.01 0.01,-0.02 0.01,-0 0.01,-0 0.02,0.01z"/>
  <path class="fil2" d="M1.55 1.25c-0,0.01 -0.01,0.02 -0.01,0.02 -0.02,0.01 -0.03,0.02 -0.05,0.03 -0,0 -0,0 -0,0 -0,0 -0,0 -0,0 -0,0 -0,0 -0,0 -0.01,0.01 -0.02,0.01 -0.03,0.01 -0.01,0 -0.02,0.01 -0.03,0.01 -0.01,0 -0.01,0 -0.02,0 -0.02,0 -0.03,0 -0.05,0l-0.01 0c-0.01,-0 -0.03,0 -0.04,-0 -0.01,-0 -0.03,-0 -0.04,-0 -0.01,-0 -0.01,-0 -0.02,-0l-0 -0c-0.01,-0 -0.03,-0.01 -0.04,-0.01 -0.02,-0 -0.03,-0.01 -0.04,-0.01l-0.01 -0.01c-0.02,-0.01 -0.03,-0.02 -0.04,-0.03 -0,-0 -0.01,-0.01 -0.01,-0.01 0,0 0,0 0,0 -0,-0 -0,-0 0,-0 0,-0 0,-0 0,-0 0,-0 0.01,-0 0.01,0 0.01,0.01 0.02,0.01 0.02,0.02 0.02,0.01 0.04,0.02 0.06,0.02 0,0 0.01,0 0.01,0 0,0 0.01,0 0.01,0 0.01,0 0.02,0 0.03,0.01 0.02,0 0.04,0.01 0.07,0.01 0.02,0 0.05,-0 0.07,-0 0,-0 0.01,-0 0.01,-0 0.02,-0 0.05,-0.01 0.07,-0.02 0.01,-0 0.02,-0.01 0.03,-0.01 0.01,-0 0.02,-0.01 0.02,-0.01 0.01,-0.01 0.02,-0.01 0.03,-0.02 0,-0 0,-0 0.01,-0.01 0,-0 0,-0 0,-0 0,-0 0,0 0,0 0,0 0,0 0,0l-0 0z"/>
  <path class="fil3" d="M0.73 1.26c0,-0 0.01,0 0.01,0 0,0 0.01,0.01 0.01,0.02 0,0 0.01,0.01 0.01,0.01 0,0 0,0 0,0 0,0 -0,0 -0,0 -0,0 -0,0 -0,0 -0,0 -0.01,0 -0.01,0 -0,0 -0,0 -0,0 -0.01,0 -0.01,0 -0.01,-0 -0,-0 -0,-0 -0.01,-0 -0,-0.01 -0.01,-0.01 -0.01,-0.02 -0,-0 -0,-0 -0,-0 -0,-0 0,-0.01 0.01,-0.01 0,-0 0.01,-0 0.01,-0 0,-0 0,-0 0,-0l0 0z"/>
  <path class="fil7" d="M0.62 1.26c0,0 0.01,0 0.01,0 0,-0 0.01,-0 0.01,-0 0,-0 0,0 0.01,0 0.01,0 0.01,0 0.02,0 0,0 0,0 0,0 0,0 0,0 0,0 -0,0 -0,0.01 -0,0.01 -0,0 -0,0 -0,0.01 -0,0.01 -0.01,0.01 -0.01,0.01 -0,0 -0.01,-0 -0.01,-0 -0.01,-0 -0.02,-0 -0.03,-0 -0,-0 -0,-0 -0,-0 0,-0.01 0.01,-0.02 0.01,-0.02 0,-0 0,-0 0,-0 0,0 0,0 0,0l0 0z"/>
  <path class="fil4" d="M0.89 1.28c-0,0.01 -0,0.01 -0,0.02 0,0.01 0,0.01 0,0.01 -0,0.03 -0,0.06 -0.02,0.08 -0,0.01 -0.01,0.01 -0.01,0.02 -0,0 -0.01,0.01 -0.01,0.01 -0.01,0.01 -0.02,0.01 -0.03,0.02 -0.01,0.01 -0.02,0.01 -0.03,0.01 -0,0 -0.01,0 -0.02,0 0.01,-0.01 0.01,-0.01 0.02,-0.02l0.01 -0.01c0.01,-0 0.02,-0 0.03,-0.01 0,-0 0,-0 0,-0 0,-0 -0,-0 -0,-0 -0.01,-0 -0.02,-0 -0.03,-0.01 0,0 0,0 0,0 -0,-0 -0,-0 -0,-0 0,0 0,-0 0,-0l0 -0.01c0,-0 0,-0 0,-0 0,0 0,0 0,0l0.01 0c0,0 0.01,0 0.01,0 0,-0 0.01,-0 0.01,-0 0.01,-0 0.02,-0.01 0.02,-0.01 0,-0 0.01,-0.01 0.01,-0.01 -0,-0 -0,-0 -0.01,-0 -0.01,0.01 -0.02,0.01 -0.02,0.01 -0.01,0 -0.02,0 -0.03,0 -0,-0 -0,-0 -0,-0 -0,-0 0,-0.01 0,-0.01 0.01,0 0.02,-0 0.02,-0.01 0,-0 0,-0 0,-0 0,-0 -0,-0 -0,-0 -0.01,-0 -0.01,-0 -0.02,-0.01 -0,-0 -0,-0 -0.01,-0 -0,0 -0,0 -0,0 -0,0 -0.01,0 -0.01,-0 -0,-0 -0,-0 -0,-0 0,-0 0,-0 0,-0l0.02 -0.01c0.01,0 0.01,0 0.01,0 0.01,-0 0.01,-0 0.02,0 0,0 0.01,0 0.01,0 0,-0 0,-0 0,-0 0,-0 -0,-0 -0,-0 -0,-0 -0.01,-0.01 -0,-0.01 0,-0 0,-0 0,-0 0,0 0,0 0,0l0.01 0.01c0,0 0,0 0,0 0,0 0,-0 0,-0 0,-0.01 0,-0.01 0.01,-0.02 0,-0.01 0,-0.02 0,-0.03 0.01,-0 0.01,-0.01 0.01,-0.02 0.01,-0 0.01,0.01 0.01,0.01z"/>
  <path class="fil11" d="M1.05 1.27c0,0 0.01,0.01 0.01,0.01 -0.01,0 -0.03,0.01 -0.04,0.01 -0.01,0 -0.03,0 -0.04,0 -0.01,0 -0.01,0 -0.02,0 -0.01,-0 -0.02,-0 -0.02,0 -0.01,0 -0.01,-0 -0.02,-0 0,-0 0.01,-0.01 0.01,-0.01 0.02,0 0.04,0 0.06,0 0.01,-0 0.02,-0 0.03,-0 0,-0 0.01,-0 0.01,-0 0.01,-0 0.02,-0 0.04,-0.01z"/>
  <path class="fil5" d="M1.08 1.31c0,0 -0,0.01 -0.01,0.01 -0.03,0.01 -0.05,0.01 -0.08,0.02 -0.03,0 -0.05,0 -0.06,-0 -0.01,-0 -0.02,-0 -0.03,-0 -0,0 -0,-0 -0,-0 0,-0.01 0,-0.03 0,-0.04 0,-0 0,-0 0,-0 0,0 0,0 0,0l0.01 0c0.01,0 0.01,0 0.02,0 0.01,-0 0.02,-0 0.02,-0 0.01,0 0.02,0 0.02,-0 0.02,-0 0.03,-0 0.04,-0 0.01,-0 0.03,-0.01 0.04,-0.01l0.01 -0c0,0 0,0 0,0 0,-0 0,0 0,0 0,0 0,0 0,0 0,0.01 0,0.01 0,0.02 0,0 0,0.01 0,0.01z"/>
  <path class="fil6" d="M1.16 1.3l0.01 0c0,0 0,0 0,0 0,0 0,-0 0,-0 0,-0 0,-0 -0,-0l-0 -0c0,0 -0,-0 -0,-0 -0,-0 0,-0 0,-0 0,0 0,0 0,0 0.01,0 0.02,0.01 0.04,0.01 0,0 0.01,0 0.02,0.01 0,0 0.01,0 0.01,0l0 0c-0.01,0 -0.01,-0 -0.02,-0 -0.01,-0 -0.01,-0 -0.01,-0 -0.01,-0 -0.02,-0 -0.03,-0 -0,0 -0,0 -0,0 0,0 0,-0 0,-0 0,0 0,0 0,0 0,0 0.01,0 0.01,0 0.01,0 0.02,0 0.03,0 0.01,0 0.01,0 0.02,0 0,0 0,0 0,0 -0,0 -0,0 -0.01,0 0,0 0.01,0 0.01,0 0,0 0,0 0,0 0,0 0,0 0,0l0 0c0,0 0,0 0,0 0,0 -0,0 -0,0 0,0 0,0 0,0 -0.02,-0 -0.04,-0 -0.05,-0.01 -0.02,-0 -0.03,-0.01 -0.04,-0.02l0.01 0.01z"/>
  <path class="fil7" d="M1.21 1.29c0,0 0.01,0 0.01,0 0.02,0 0.03,0.01 0.04,0.01 0.02,0 0.04,0 0.06,0 0.02,-0 0.03,-0 0.06,-0 0,-0 0.01,-0 0.02,-0l-0 0.01c-0.01,0 -0.01,0 -0.01,0 -0.02,0 -0.05,0.01 -0.07,0 -0.03,-0 -0.05,-0 -0.07,-0.01 -0,-0 -0.01,-0 -0.03,-0.01 -0,-0 -0.01,-0 -0.01,-0 0,-0 0.01,-0 0.01,-0.01z"/>
  <path class="fil11" d="M1.24 1.32c-0.01,-0 -0.01,-0 -0.01,-0 -0.01,-0 -0.02,-0 -0.02,-0.01 -0.01,-0 -0.02,-0 -0.04,-0.01 -0,0 -0,0 -0,0 -0,0 -0,0 -0,0 0,0 0,0 0,0l0 0c0,0 0,0 0,0 0,0 -0,0 -0,0 0,0 -0,0 -0,-0l-0.01 -0c0.01,0 0.02,0 0.04,0.01 0.01,0 0.03,0.01 0.04,0.01z"/>
  <path class="fil11" d="M1.09 1.32c-0.01,0 -0.01,0.01 -0.02,0.01 -0.02,0.01 -0.03,0.01 -0.03,0.01 -0.01,0 -0.01,0 -0.02,0 -0.02,0 -0.04,0 -0.07,0 -0.01,0 -0.03,-0 -0.04,-0.01 -0,-0 -0.01,-0 -0.01,-0l0 -0.01c-0,0 0,0 0,0 0.01,0 0.02,0 0.03,0 0.01,0 0.03,0 0.06,0 0.03,-0 0.06,-0.01 0.08,-0.02 0.01,-0 0.01,-0.01 0.01,-0.01 0,0 0,0.01 0.01,0.02z"/>
  <path class="fil3" d="M0.53 1.33c-0,0 -0.01,0 -0.01,0 -0.01,0 -0.02,-0.01 -0.02,-0.02 -0,-0 -0,-0 -0,-0 0,-0 0,-0 0,-0 0,0 0,0 0,0 0.01,0 0.02,0.01 0.03,0.01 0,0 0,0 0,0 0,0 -0,0 -0,0l0 0z"/>
  <path class="fil5" d="M1.09 1.32l0.02 0.03c0,0 0,0 -0,0 -0.01,0 -0.02,0.01 -0.03,0.01 -0.02,0.01 -0.03,0.01 -0.05,0.01 -0.01,0 -0.02,0 -0.03,0 -0.02,0 -0.05,0 -0.07,-0 -0.01,-0 -0.02,-0 -0.03,-0 -0,-0 -0.01,-0 -0.01,0 0,-0 0,-0.01 0,-0.01 0,-0 0,-0.01 0,-0.01 0,-0 0,-0.01 0,-0.01 0,-0 0,-0 0,-0.01 0,-0 0,-0 0,-0.01 0.01,0 0.01,0 0.01,0 0.01,0 0.03,0.01 0.04,0.01 0.03,-0 0.05,-0 0.07,-0 0.01,-0 0.01,-0 0.02,-0 0,-0 0.01,-0 0.03,-0.01 0,-0 0.01,-0 0.02,-0.01z"/>
  <path class="fil3" d="M1.34 1.33l0.01 -0 -0.01 0.01c-0,0 -0,0 -0,0 0,0 0,0 0,0 0,0 0,0 0.01,0 0.02,0 0.04,0 0.06,0 0,0 0,0 0,0 0,0 0,0 0,0 0,0 -0,0.01 -0,0.01 -0,0.02 -0.01,0.03 -0.01,0.04 -0,0 -0,0 0,0 0.01,0.02 0.02,0.03 0.02,0.05 -0.01,0 -0.01,0 -0.01,0 -0.02,0 -0.04,0 -0.05,0 -0.01,0 -0.03,0 -0.05,0 -0.02,-0 -0.05,-0 -0.07,-0.01 -0,-0.01 -0,-0.02 -0,-0.03 -0,-0.01 0,-0.01 0,-0.02 0,-0.01 0,-0.01 0.01,-0.02 0,-0.01 0.01,-0.02 0.01,-0.02 0.01,-0.01 0.01,-0.02 0.02,-0.02 0,-0 0,-0 0,-0 0.02,0 0.04,0 0.05,0 0,0 0.01,-0 0.01,-0z"/>
  <path class="fil3" d="M0.58 1.35c0,-0 0,-0 0,-0 0,-0 -0,-0 -0,-0 -0.01,-0 -0.01,-0 -0.02,-0 -0,0 -0.01,0 -0.01,-0 -0,-0 -0.01,-0.01 -0.01,-0.01 -0,-0 -0,-0 -0,-0l0 -0c0,-0 0,-0 0,-0 0,-0 0,-0 0,-0 0,0 0,0 0,0 0,0 0.01,0.01 0.01,0.01 0,0 0.01,0 0.01,-0 0,-0 0,-0 0,-0 -0,-0 0,-0 0,-0 0,-0 0,-0 0,-0 0.01,0 0.01,0.01 0.02,0.01 0.01,0 0.01,0 0.02,0 0,0 0,0 0,0 0,0 0,0 0,0 -0,0 -0,0 -0,0 -0,0 -0,0 -0,0 -0.01,0 -0.01,0.01 -0.02,0.01 -0.01,0.01 -0.01,0.01 -0.02,0.01 -0.01,0 -0.01,0 -0.02,-0 -0,-0 -0,-0 -0,-0 0,-0 0,-0 0,-0 0,-0 0.01,-0 0.01,-0.01 0,-0 0,-0 0.01,-0 0.01,-0 0.01,-0 0.02,-0.01z"/>
  <path class="fil3" d="M0.81 1.34l-0.02 0.01c-0,0 -0,0 -0,0 0,0 0,0 0,0 0,0 0.01,0 0.01,0 0,-0 0,-0 0,-0 0.01,0 0.01,0 0.01,0 0.01,0 0.01,0 0.02,0.01 0,0 0,0 0,0 0,0 -0,0 -0,0 -0.01,0 -0.02,0.01 -0.02,0.01 -0.01,-0 -0.01,-0.01 -0.02,-0.01 -0.01,-0.01 -0.01,-0.01 -0.02,-0.01 -0,-0 -0,-0 -0,-0 -0,-0 -0,-0 0,-0 0,-0 0,-0 0,-0 0.02,-0 0.03,-0 0.05,-0.01 0,-0 0,0 0,0 0,0 0,0 0,0 0,0 0,0 0,-0l0.01 -0c0,-0 0,-0 0,-0 0,0 0,0 0,0 0,0 -0,0.01 -0,0.01 -0,0 -0,0 -0,0 -0,-0 -0.01,-0 -0.01,-0z"/>
  <path class="fil3" d="M0.53 1.34l-0 0.01c-0,0 0,0 0,0l0.01 0c0,0 0,0 0,0 0,0 -0,0 -0,0 -0,0 -0.01,0 -0.01,0 -0,-0 -0,-0 -0,-0 0,-0 0,-0 0.01,-0.01 0,-0 0,-0 0,-0 0,0 0,0 0,0 0,0 0,0 0,0l0 0z"/>
  <path class="fil3" d="M0.7 1.35c0,-0 0.01,-0 0.01,-0 0,-0 0,-0 0.01,-0 0.01,-0 0.02,-0 0.03,-0 0.01,0 0.01,0 0.02,0.01 0.01,0.01 0.01,0.02 0.02,0.03 0,0 0,0.01 -0,0.01 -0,0.01 -0.01,0.02 -0.01,0.03 -0,0.01 -0.01,0.01 -0.02,0.01 -0.01,0 -0.01,0 -0.02,0 -0.01,0 -0.02,0 -0.02,-0 -0.01,-0 -0.01,-0 -0.01,-0 -0,0 -0.01,0 -0.01,0 -0.02,-0 -0.03,-0 -0.05,-0 -0.01,-0 -0.02,-0.01 -0.03,-0.02 -0,-0.01 -0,-0.01 -0,-0.02 0,-0.01 0,-0.02 0.01,-0.03 0.01,-0.01 0.02,-0.02 0.03,-0.02 0.01,-0 0.02,0 0.03,0 0,0 0,0 0,0 0,0 0,0 0,0 0,0 0,0 0,0 0,0 0,0 0,0 0,0 0,0 -0,0 -0,0 -0.01,0.01 -0.01,0.01 -0,0.01 -0.01,0.01 -0.02,0.02 -0,0 -0,0 -0,0.01 0,0 0,0 0,0 0,0 -0,0 -0,0l-0.01 0c-0,0 -0,0 -0,0 -0,0 -0,-0 -0,-0 0,-0 0,-0 0,-0 0,-0.01 0.01,-0.02 0.02,-0.02 0,-0 0,-0 0,-0 0,0 0,-0 0.01,-0 0,-0 0,-0 0,-0 0,-0 -0,-0 -0,-0 -0,-0 -0.01,-0 -0.01,-0 -0,0 -0.01,0 -0.01,0 -0.01,0 -0.01,0.01 -0.02,0.02 -0,0.01 0,0.01 0,0.02 0.01,0.01 0.02,0.02 0.03,0.02 0.01,0 0.01,0 0.02,0 0,-0 0.01,-0 0.01,-0.01 0,-0 0,-0 0,-0 0,-0 -0,-0 -0,-0 -0,-0 -0.01,-0 -0.01,-0.01 -0,-0 -0,-0 -0.01,0 -0,0.01 -0.01,0 -0.02,0 -0,0 -0,0 -0,-0 0,0 0,0 0,0 0,0 0,0 0,0l0.01 -0c0,0 0,-0 0,-0 0,-0 0,-0 0,-0 -0,-0 -0,-0 -0,-0 -0,-0 -0.01,-0 -0.01,-0 -0.01,-0 -0.01,0 -0.02,-0.01 -0,-0 -0,-0 -0,-0 0,-0 0,-0 0,-0 0.01,-0 0.01,0 0.02,0 0,0 0,0 0.01,0 0.01,0.01 0.02,-0 0.03,-0 0,-0 0.01,0 0.02,0 0,0 0.01,-0 0.01,-0 0.01,-0 0.02,-0 0.03,-0 0,0 0,0 0,0 0,0 0,0 0,0 0,0 0,0 0,0 0,0 -0,0 -0,0 -0,0 -0,0.01 -0.01,0.01 -0,0 -0,0 -0,0l-0 0c-0,0 -0,0 -0,0 -0,0 -0,-0 -0,-0l-0 -0.01c-0,-0 -0,-0 -0,-0 -0,-0 -0,0 -0,0 -0,0 -0,0 -0,0l-0 0.01c-0,0 -0,0 -0,0l-0 0c-0,0 -0,0 -0,0 -0,0 -0,-0 -0,-0 0,0 0,0 0,0l0 -0.01c0,0 0,0 0,0 0,-0 -0,-0 -0,-0 -0,0 -0,0 -0,0 -0.01,0 -0.01,0.01 -0.02,0.02 -0,0 -0,0 -0,0 0,0 0,0 0,0 0,0 0.01,0 0.01,0 0.01,-0 0.01,-0 0.02,-0 0.01,-0 0.01,-0 0.02,-0 0.01,-0 0.01,-0.02 0.02,-0.03 0,-0 0,-0.01 0,-0.01 -0,-0 -0,-0.01 -0,-0.01 -0,-0.01 -0.02,-0.01 -0.02,-0.01 -0,-0 -0.01,-0 -0.01,0 -0.01,0 -0.01,0 -0.01,-0 -0,-0 -0,-0 -0.01,-0.01 -0,-0 -0,-0 -0,-0 0,-0 0,-0 0,-0l0 0z"/>
  <path class="fil3" d="M0.86 1.37c-0,0.01 -0,0.01 -0.01,0.01 -0.01,0.01 -0.01,0.01 -0.02,0.01 -0,0 -0.01,0 -0.01,0 -0,0 -0.01,-0 -0.01,-0l-0.01 -0c-0,-0 -0,-0 -0,-0 0,-0 0,-0 0,-0l0 -0c0,-0 0,-0 0,-0 0,0 0,0 0,0 0.01,0 0.02,0 0.02,-0 0.01,-0 0.02,-0.01 0.03,-0.01 0,-0 0,-0 0.01,-0z"/>
  <path class="fil7" d="M0.55 1.38c0,-0 0,0 0,0l0 0c0,0 0,0 0,0 0.01,-0 0.01,-0 0.01,-0 0,-0 0,-0 0,-0 0,0 0,0 0,0 0,0 -0,0 -0,0 -0.01,0.01 -0.01,0.01 -0.02,0.01 -0,-0 -0.01,-0 -0.01,-0 -0.01,0 -0.02,-0 -0.03,-0.01 -0,-0 -0,-0.01 -0,-0.01 -0,-0 -0,-0 -0,-0 0,-0 0,-0 0,-0 0,-0 0,-0 0,0 0,0 0.01,0 0.01,0 0,0 0.01,0 0.01,0.01 0,0 0.01,0.01 0.02,0.01 0,0 0,-0 0,-0l0 -0c0,-0 0,-0 0,-0l0 -0z"/>
  <path class="fil4" d="M1.04 1.44c-0.01,-0.01 -0.02,-0.02 -0.04,-0.04 0.01,-0 0.02,-0 0.04,-0.01 0.01,-0 0.02,-0.01 0.03,-0.01 0.01,-0 0.02,-0.01 0.02,-0.01 0.01,-0 0.01,-0.01 0.02,-0.01 0,-0 0,-0 0,-0 0,0 0,0 0,0l0 0c0,0 0,0 0,0 0.01,0.01 0.01,0.01 0.01,0.02 0,0 0,0 -0,0.01 -0.01,0.01 -0.01,0.01 -0.02,0.02 -0,0 -0.01,0.01 -0.01,0.01 -0.01,0.01 -0.02,0.01 -0.02,0.01 -0.01,0 -0.02,0.01 -0.03,0.01z"/>
  <path class="fil11" d="M1.03 1.39l0.01 0.01c-0.01,0 -0.02,0 -0.04,0.01 -0.02,0 -0.04,0 -0.06,-0 -0.01,-0 -0.02,-0 -0.03,-0.01 -0.01,-0 -0.01,-0 -0.02,-0 0,-0 0,-0.01 -0,-0.01 0,-0 0.01,-0 0.01,-0 0.01,0 0.02,0 0.03,0 0.02,0 0.04,0 0.07,0 0.01,-0 0.02,-0 0.03,-0z"/>
  <path class="fil3" d="M0.89 1.39c0,0 0.01,0 0.02,0 0.01,0 0.02,0 0.03,0.01 0.02,0 0.04,0 0.06,0 0.01,0.01 0.02,0.02 0.04,0.04 -0.02,0 -0.04,0.01 -0.06,0.01 -0,0 -0.02,-0 -0.03,-0 -0.01,-0 -0.02,-0 -0.02,-0 -0.02,-0 -0.03,-0.01 -0.05,-0.01 -0.01,-0 -0.01,-0 -0.02,-0.01 -0,-0 -0,-0 -0,-0 0,-0 0,-0 0,-0 0.01,-0.01 0.02,-0.02 0.03,-0.03 0,-0 0,-0 0,-0 0,-0 0,-0 0.01,0z"/>
  <path class="fil3" d="M0.8 1.42l-0.01 0.01 -0 0c-0,0 -0,0 -0,0 -0,0 -0,-0 -0,-0 0,-0 0,-0 0,-0 0,-0 0.01,-0.01 0.02,-0.01 0,-0 0,-0 0,-0 0,0 0,0 0,0l0 0c0,0 0,0 -0,0l-0 0z"/>
 </g>
</svg>
